%TF.GenerationSoftware,KiCad,Pcbnew,9.0.7*%
%TF.CreationDate,2026-02-04T17:26:36-07:00*%
%TF.ProjectId,Uno_Shield_DSP_Class_v1,556e6f5f-5368-4696-956c-645f4453505f,rev?*%
%TF.SameCoordinates,Original*%
%TF.FileFunction,Legend,Top*%
%TF.FilePolarity,Positive*%
%FSLAX46Y46*%
G04 Gerber Fmt 4.6, Leading zero omitted, Abs format (unit mm)*
G04 Created by KiCad (PCBNEW 9.0.7) date 2026-02-04 17:26:36*
%MOMM*%
%LPD*%
G01*
G04 APERTURE LIST*
%ADD10C,0.150000*%
%ADD11C,0.120000*%
G04 APERTURE END LIST*
D10*
X92574969Y-49869819D02*
X92098779Y-49869819D01*
X92098779Y-49869819D02*
X92098779Y-48869819D01*
X93336874Y-49203152D02*
X93336874Y-49869819D01*
X92908303Y-49203152D02*
X92908303Y-49726961D01*
X92908303Y-49726961D02*
X92955922Y-49822200D01*
X92955922Y-49822200D02*
X93051160Y-49869819D01*
X93051160Y-49869819D02*
X93194017Y-49869819D01*
X93194017Y-49869819D02*
X93289255Y-49822200D01*
X93289255Y-49822200D02*
X93336874Y-49774580D01*
X93813065Y-49869819D02*
X93813065Y-48869819D01*
X93908303Y-49488866D02*
X94194017Y-49869819D01*
X94194017Y-49203152D02*
X93813065Y-49584104D01*
X95003541Y-49822200D02*
X94908303Y-49869819D01*
X94908303Y-49869819D02*
X94717827Y-49869819D01*
X94717827Y-49869819D02*
X94622589Y-49822200D01*
X94622589Y-49822200D02*
X94574970Y-49726961D01*
X94574970Y-49726961D02*
X94574970Y-49346009D01*
X94574970Y-49346009D02*
X94622589Y-49250771D01*
X94622589Y-49250771D02*
X94717827Y-49203152D01*
X94717827Y-49203152D02*
X94908303Y-49203152D01*
X94908303Y-49203152D02*
X95003541Y-49250771D01*
X95003541Y-49250771D02*
X95051160Y-49346009D01*
X95051160Y-49346009D02*
X95051160Y-49441247D01*
X95051160Y-49441247D02*
X94574970Y-49536485D01*
X96241637Y-49346009D02*
X96574970Y-49346009D01*
X96717827Y-49869819D02*
X96241637Y-49869819D01*
X96241637Y-49869819D02*
X96241637Y-48869819D01*
X96241637Y-48869819D02*
X96717827Y-48869819D01*
X97574970Y-49203152D02*
X97574970Y-50012676D01*
X97574970Y-50012676D02*
X97527351Y-50107914D01*
X97527351Y-50107914D02*
X97479732Y-50155533D01*
X97479732Y-50155533D02*
X97384494Y-50203152D01*
X97384494Y-50203152D02*
X97241637Y-50203152D01*
X97241637Y-50203152D02*
X97146399Y-50155533D01*
X97574970Y-49822200D02*
X97479732Y-49869819D01*
X97479732Y-49869819D02*
X97289256Y-49869819D01*
X97289256Y-49869819D02*
X97194018Y-49822200D01*
X97194018Y-49822200D02*
X97146399Y-49774580D01*
X97146399Y-49774580D02*
X97098780Y-49679342D01*
X97098780Y-49679342D02*
X97098780Y-49393628D01*
X97098780Y-49393628D02*
X97146399Y-49298390D01*
X97146399Y-49298390D02*
X97194018Y-49250771D01*
X97194018Y-49250771D02*
X97289256Y-49203152D01*
X97289256Y-49203152D02*
X97479732Y-49203152D01*
X97479732Y-49203152D02*
X97574970Y-49250771D01*
X98479732Y-49203152D02*
X98479732Y-50012676D01*
X98479732Y-50012676D02*
X98432113Y-50107914D01*
X98432113Y-50107914D02*
X98384494Y-50155533D01*
X98384494Y-50155533D02*
X98289256Y-50203152D01*
X98289256Y-50203152D02*
X98146399Y-50203152D01*
X98146399Y-50203152D02*
X98051161Y-50155533D01*
X98479732Y-49822200D02*
X98384494Y-49869819D01*
X98384494Y-49869819D02*
X98194018Y-49869819D01*
X98194018Y-49869819D02*
X98098780Y-49822200D01*
X98098780Y-49822200D02*
X98051161Y-49774580D01*
X98051161Y-49774580D02*
X98003542Y-49679342D01*
X98003542Y-49679342D02*
X98003542Y-49393628D01*
X98003542Y-49393628D02*
X98051161Y-49298390D01*
X98051161Y-49298390D02*
X98098780Y-49250771D01*
X98098780Y-49250771D02*
X98194018Y-49203152D01*
X98194018Y-49203152D02*
X98384494Y-49203152D01*
X98384494Y-49203152D02*
X98479732Y-49250771D01*
X99336875Y-49822200D02*
X99241637Y-49869819D01*
X99241637Y-49869819D02*
X99051161Y-49869819D01*
X99051161Y-49869819D02*
X98955923Y-49822200D01*
X98955923Y-49822200D02*
X98908304Y-49726961D01*
X98908304Y-49726961D02*
X98908304Y-49346009D01*
X98908304Y-49346009D02*
X98955923Y-49250771D01*
X98955923Y-49250771D02*
X99051161Y-49203152D01*
X99051161Y-49203152D02*
X99241637Y-49203152D01*
X99241637Y-49203152D02*
X99336875Y-49250771D01*
X99336875Y-49250771D02*
X99384494Y-49346009D01*
X99384494Y-49346009D02*
X99384494Y-49441247D01*
X99384494Y-49441247D02*
X98908304Y-49536485D01*
X99813066Y-49869819D02*
X99813066Y-49203152D01*
X99813066Y-49393628D02*
X99860685Y-49298390D01*
X99860685Y-49298390D02*
X99908304Y-49250771D01*
X99908304Y-49250771D02*
X100003542Y-49203152D01*
X100003542Y-49203152D02*
X100098780Y-49203152D01*
X100289257Y-49203152D02*
X100670209Y-49203152D01*
X100432114Y-48869819D02*
X100432114Y-49726961D01*
X100432114Y-49726961D02*
X100479733Y-49822200D01*
X100479733Y-49822200D02*
X100574971Y-49869819D01*
X100574971Y-49869819D02*
X100670209Y-49869819D01*
X86060000Y-70860000D02*
X113360000Y-70860000D01*
X113360000Y-98660000D01*
X86060000Y-98660000D01*
X86060000Y-70860000D01*
X87940000Y-52820000D02*
X109270000Y-52820000D01*
X109270000Y-69360000D01*
X87940000Y-69360000D01*
X87940000Y-52820000D01*
X136513333Y-67784819D02*
X136180000Y-67308628D01*
X135941905Y-67784819D02*
X135941905Y-66784819D01*
X135941905Y-66784819D02*
X136322857Y-66784819D01*
X136322857Y-66784819D02*
X136418095Y-66832438D01*
X136418095Y-66832438D02*
X136465714Y-66880057D01*
X136465714Y-66880057D02*
X136513333Y-66975295D01*
X136513333Y-66975295D02*
X136513333Y-67118152D01*
X136513333Y-67118152D02*
X136465714Y-67213390D01*
X136465714Y-67213390D02*
X136418095Y-67261009D01*
X136418095Y-67261009D02*
X136322857Y-67308628D01*
X136322857Y-67308628D02*
X135941905Y-67308628D01*
X136989524Y-67784819D02*
X137180000Y-67784819D01*
X137180000Y-67784819D02*
X137275238Y-67737200D01*
X137275238Y-67737200D02*
X137322857Y-67689580D01*
X137322857Y-67689580D02*
X137418095Y-67546723D01*
X137418095Y-67546723D02*
X137465714Y-67356247D01*
X137465714Y-67356247D02*
X137465714Y-66975295D01*
X137465714Y-66975295D02*
X137418095Y-66880057D01*
X137418095Y-66880057D02*
X137370476Y-66832438D01*
X137370476Y-66832438D02*
X137275238Y-66784819D01*
X137275238Y-66784819D02*
X137084762Y-66784819D01*
X137084762Y-66784819D02*
X136989524Y-66832438D01*
X136989524Y-66832438D02*
X136941905Y-66880057D01*
X136941905Y-66880057D02*
X136894286Y-66975295D01*
X136894286Y-66975295D02*
X136894286Y-67213390D01*
X136894286Y-67213390D02*
X136941905Y-67308628D01*
X136941905Y-67308628D02*
X136989524Y-67356247D01*
X136989524Y-67356247D02*
X137084762Y-67403866D01*
X137084762Y-67403866D02*
X137275238Y-67403866D01*
X137275238Y-67403866D02*
X137370476Y-67356247D01*
X137370476Y-67356247D02*
X137418095Y-67308628D01*
X137418095Y-67308628D02*
X137465714Y-67213390D01*
X127487142Y-67714819D02*
X127153809Y-67238628D01*
X126915714Y-67714819D02*
X126915714Y-66714819D01*
X126915714Y-66714819D02*
X127296666Y-66714819D01*
X127296666Y-66714819D02*
X127391904Y-66762438D01*
X127391904Y-66762438D02*
X127439523Y-66810057D01*
X127439523Y-66810057D02*
X127487142Y-66905295D01*
X127487142Y-66905295D02*
X127487142Y-67048152D01*
X127487142Y-67048152D02*
X127439523Y-67143390D01*
X127439523Y-67143390D02*
X127391904Y-67191009D01*
X127391904Y-67191009D02*
X127296666Y-67238628D01*
X127296666Y-67238628D02*
X126915714Y-67238628D01*
X128439523Y-67714819D02*
X127868095Y-67714819D01*
X128153809Y-67714819D02*
X128153809Y-66714819D01*
X128153809Y-66714819D02*
X128058571Y-66857676D01*
X128058571Y-66857676D02*
X127963333Y-66952914D01*
X127963333Y-66952914D02*
X127868095Y-67000533D01*
X128772857Y-66714819D02*
X129391904Y-66714819D01*
X129391904Y-66714819D02*
X129058571Y-67095771D01*
X129058571Y-67095771D02*
X129201428Y-67095771D01*
X129201428Y-67095771D02*
X129296666Y-67143390D01*
X129296666Y-67143390D02*
X129344285Y-67191009D01*
X129344285Y-67191009D02*
X129391904Y-67286247D01*
X129391904Y-67286247D02*
X129391904Y-67524342D01*
X129391904Y-67524342D02*
X129344285Y-67619580D01*
X129344285Y-67619580D02*
X129296666Y-67667200D01*
X129296666Y-67667200D02*
X129201428Y-67714819D01*
X129201428Y-67714819D02*
X128915714Y-67714819D01*
X128915714Y-67714819D02*
X128820476Y-67667200D01*
X128820476Y-67667200D02*
X128772857Y-67619580D01*
X127487142Y-54744819D02*
X127153809Y-54268628D01*
X126915714Y-54744819D02*
X126915714Y-53744819D01*
X126915714Y-53744819D02*
X127296666Y-53744819D01*
X127296666Y-53744819D02*
X127391904Y-53792438D01*
X127391904Y-53792438D02*
X127439523Y-53840057D01*
X127439523Y-53840057D02*
X127487142Y-53935295D01*
X127487142Y-53935295D02*
X127487142Y-54078152D01*
X127487142Y-54078152D02*
X127439523Y-54173390D01*
X127439523Y-54173390D02*
X127391904Y-54221009D01*
X127391904Y-54221009D02*
X127296666Y-54268628D01*
X127296666Y-54268628D02*
X126915714Y-54268628D01*
X128439523Y-54744819D02*
X127868095Y-54744819D01*
X128153809Y-54744819D02*
X128153809Y-53744819D01*
X128153809Y-53744819D02*
X128058571Y-53887676D01*
X128058571Y-53887676D02*
X127963333Y-53982914D01*
X127963333Y-53982914D02*
X127868095Y-54030533D01*
X129296666Y-54078152D02*
X129296666Y-54744819D01*
X129058571Y-53697200D02*
X128820476Y-54411485D01*
X128820476Y-54411485D02*
X129439523Y-54411485D01*
X119647142Y-54764819D02*
X119313809Y-54288628D01*
X119075714Y-54764819D02*
X119075714Y-53764819D01*
X119075714Y-53764819D02*
X119456666Y-53764819D01*
X119456666Y-53764819D02*
X119551904Y-53812438D01*
X119551904Y-53812438D02*
X119599523Y-53860057D01*
X119599523Y-53860057D02*
X119647142Y-53955295D01*
X119647142Y-53955295D02*
X119647142Y-54098152D01*
X119647142Y-54098152D02*
X119599523Y-54193390D01*
X119599523Y-54193390D02*
X119551904Y-54241009D01*
X119551904Y-54241009D02*
X119456666Y-54288628D01*
X119456666Y-54288628D02*
X119075714Y-54288628D01*
X120599523Y-54764819D02*
X120028095Y-54764819D01*
X120313809Y-54764819D02*
X120313809Y-53764819D01*
X120313809Y-53764819D02*
X120218571Y-53907676D01*
X120218571Y-53907676D02*
X120123333Y-54002914D01*
X120123333Y-54002914D02*
X120028095Y-54050533D01*
X121170952Y-54193390D02*
X121075714Y-54145771D01*
X121075714Y-54145771D02*
X121028095Y-54098152D01*
X121028095Y-54098152D02*
X120980476Y-54002914D01*
X120980476Y-54002914D02*
X120980476Y-53955295D01*
X120980476Y-53955295D02*
X121028095Y-53860057D01*
X121028095Y-53860057D02*
X121075714Y-53812438D01*
X121075714Y-53812438D02*
X121170952Y-53764819D01*
X121170952Y-53764819D02*
X121361428Y-53764819D01*
X121361428Y-53764819D02*
X121456666Y-53812438D01*
X121456666Y-53812438D02*
X121504285Y-53860057D01*
X121504285Y-53860057D02*
X121551904Y-53955295D01*
X121551904Y-53955295D02*
X121551904Y-54002914D01*
X121551904Y-54002914D02*
X121504285Y-54098152D01*
X121504285Y-54098152D02*
X121456666Y-54145771D01*
X121456666Y-54145771D02*
X121361428Y-54193390D01*
X121361428Y-54193390D02*
X121170952Y-54193390D01*
X121170952Y-54193390D02*
X121075714Y-54241009D01*
X121075714Y-54241009D02*
X121028095Y-54288628D01*
X121028095Y-54288628D02*
X120980476Y-54383866D01*
X120980476Y-54383866D02*
X120980476Y-54574342D01*
X120980476Y-54574342D02*
X121028095Y-54669580D01*
X121028095Y-54669580D02*
X121075714Y-54717200D01*
X121075714Y-54717200D02*
X121170952Y-54764819D01*
X121170952Y-54764819D02*
X121361428Y-54764819D01*
X121361428Y-54764819D02*
X121456666Y-54717200D01*
X121456666Y-54717200D02*
X121504285Y-54669580D01*
X121504285Y-54669580D02*
X121551904Y-54574342D01*
X121551904Y-54574342D02*
X121551904Y-54383866D01*
X121551904Y-54383866D02*
X121504285Y-54288628D01*
X121504285Y-54288628D02*
X121456666Y-54241009D01*
X121456666Y-54241009D02*
X121361428Y-54193390D01*
X148183333Y-54764819D02*
X147850000Y-54288628D01*
X147611905Y-54764819D02*
X147611905Y-53764819D01*
X147611905Y-53764819D02*
X147992857Y-53764819D01*
X147992857Y-53764819D02*
X148088095Y-53812438D01*
X148088095Y-53812438D02*
X148135714Y-53860057D01*
X148135714Y-53860057D02*
X148183333Y-53955295D01*
X148183333Y-53955295D02*
X148183333Y-54098152D01*
X148183333Y-54098152D02*
X148135714Y-54193390D01*
X148135714Y-54193390D02*
X148088095Y-54241009D01*
X148088095Y-54241009D02*
X147992857Y-54288628D01*
X147992857Y-54288628D02*
X147611905Y-54288628D01*
X149040476Y-54098152D02*
X149040476Y-54764819D01*
X148802381Y-53717200D02*
X148564286Y-54431485D01*
X148564286Y-54431485D02*
X149183333Y-54431485D01*
X123427142Y-67784819D02*
X123093809Y-67308628D01*
X122855714Y-67784819D02*
X122855714Y-66784819D01*
X122855714Y-66784819D02*
X123236666Y-66784819D01*
X123236666Y-66784819D02*
X123331904Y-66832438D01*
X123331904Y-66832438D02*
X123379523Y-66880057D01*
X123379523Y-66880057D02*
X123427142Y-66975295D01*
X123427142Y-66975295D02*
X123427142Y-67118152D01*
X123427142Y-67118152D02*
X123379523Y-67213390D01*
X123379523Y-67213390D02*
X123331904Y-67261009D01*
X123331904Y-67261009D02*
X123236666Y-67308628D01*
X123236666Y-67308628D02*
X122855714Y-67308628D01*
X124379523Y-67784819D02*
X123808095Y-67784819D01*
X124093809Y-67784819D02*
X124093809Y-66784819D01*
X124093809Y-66784819D02*
X123998571Y-66927676D01*
X123998571Y-66927676D02*
X123903333Y-67022914D01*
X123903333Y-67022914D02*
X123808095Y-67070533D01*
X125284285Y-66784819D02*
X124808095Y-66784819D01*
X124808095Y-66784819D02*
X124760476Y-67261009D01*
X124760476Y-67261009D02*
X124808095Y-67213390D01*
X124808095Y-67213390D02*
X124903333Y-67165771D01*
X124903333Y-67165771D02*
X125141428Y-67165771D01*
X125141428Y-67165771D02*
X125236666Y-67213390D01*
X125236666Y-67213390D02*
X125284285Y-67261009D01*
X125284285Y-67261009D02*
X125331904Y-67356247D01*
X125331904Y-67356247D02*
X125331904Y-67594342D01*
X125331904Y-67594342D02*
X125284285Y-67689580D01*
X125284285Y-67689580D02*
X125236666Y-67737200D01*
X125236666Y-67737200D02*
X125141428Y-67784819D01*
X125141428Y-67784819D02*
X124903333Y-67784819D01*
X124903333Y-67784819D02*
X124808095Y-67737200D01*
X124808095Y-67737200D02*
X124760476Y-67689580D01*
X115517142Y-67874819D02*
X115183809Y-67398628D01*
X114945714Y-67874819D02*
X114945714Y-66874819D01*
X114945714Y-66874819D02*
X115326666Y-66874819D01*
X115326666Y-66874819D02*
X115421904Y-66922438D01*
X115421904Y-66922438D02*
X115469523Y-66970057D01*
X115469523Y-66970057D02*
X115517142Y-67065295D01*
X115517142Y-67065295D02*
X115517142Y-67208152D01*
X115517142Y-67208152D02*
X115469523Y-67303390D01*
X115469523Y-67303390D02*
X115421904Y-67351009D01*
X115421904Y-67351009D02*
X115326666Y-67398628D01*
X115326666Y-67398628D02*
X114945714Y-67398628D01*
X116469523Y-67874819D02*
X115898095Y-67874819D01*
X116183809Y-67874819D02*
X116183809Y-66874819D01*
X116183809Y-66874819D02*
X116088571Y-67017676D01*
X116088571Y-67017676D02*
X115993333Y-67112914D01*
X115993333Y-67112914D02*
X115898095Y-67160533D01*
X116945714Y-67874819D02*
X117136190Y-67874819D01*
X117136190Y-67874819D02*
X117231428Y-67827200D01*
X117231428Y-67827200D02*
X117279047Y-67779580D01*
X117279047Y-67779580D02*
X117374285Y-67636723D01*
X117374285Y-67636723D02*
X117421904Y-67446247D01*
X117421904Y-67446247D02*
X117421904Y-67065295D01*
X117421904Y-67065295D02*
X117374285Y-66970057D01*
X117374285Y-66970057D02*
X117326666Y-66922438D01*
X117326666Y-66922438D02*
X117231428Y-66874819D01*
X117231428Y-66874819D02*
X117040952Y-66874819D01*
X117040952Y-66874819D02*
X116945714Y-66922438D01*
X116945714Y-66922438D02*
X116898095Y-66970057D01*
X116898095Y-66970057D02*
X116850476Y-67065295D01*
X116850476Y-67065295D02*
X116850476Y-67303390D01*
X116850476Y-67303390D02*
X116898095Y-67398628D01*
X116898095Y-67398628D02*
X116945714Y-67446247D01*
X116945714Y-67446247D02*
X117040952Y-67493866D01*
X117040952Y-67493866D02*
X117231428Y-67493866D01*
X117231428Y-67493866D02*
X117326666Y-67446247D01*
X117326666Y-67446247D02*
X117374285Y-67398628D01*
X117374285Y-67398628D02*
X117421904Y-67303390D01*
X129723333Y-72149580D02*
X129675714Y-72197200D01*
X129675714Y-72197200D02*
X129532857Y-72244819D01*
X129532857Y-72244819D02*
X129437619Y-72244819D01*
X129437619Y-72244819D02*
X129294762Y-72197200D01*
X129294762Y-72197200D02*
X129199524Y-72101961D01*
X129199524Y-72101961D02*
X129151905Y-72006723D01*
X129151905Y-72006723D02*
X129104286Y-71816247D01*
X129104286Y-71816247D02*
X129104286Y-71673390D01*
X129104286Y-71673390D02*
X129151905Y-71482914D01*
X129151905Y-71482914D02*
X129199524Y-71387676D01*
X129199524Y-71387676D02*
X129294762Y-71292438D01*
X129294762Y-71292438D02*
X129437619Y-71244819D01*
X129437619Y-71244819D02*
X129532857Y-71244819D01*
X129532857Y-71244819D02*
X129675714Y-71292438D01*
X129675714Y-71292438D02*
X129723333Y-71340057D01*
X130104286Y-71340057D02*
X130151905Y-71292438D01*
X130151905Y-71292438D02*
X130247143Y-71244819D01*
X130247143Y-71244819D02*
X130485238Y-71244819D01*
X130485238Y-71244819D02*
X130580476Y-71292438D01*
X130580476Y-71292438D02*
X130628095Y-71340057D01*
X130628095Y-71340057D02*
X130675714Y-71435295D01*
X130675714Y-71435295D02*
X130675714Y-71530533D01*
X130675714Y-71530533D02*
X130628095Y-71673390D01*
X130628095Y-71673390D02*
X130056667Y-72244819D01*
X130056667Y-72244819D02*
X130675714Y-72244819D01*
X140363333Y-67784819D02*
X140030000Y-67308628D01*
X139791905Y-67784819D02*
X139791905Y-66784819D01*
X139791905Y-66784819D02*
X140172857Y-66784819D01*
X140172857Y-66784819D02*
X140268095Y-66832438D01*
X140268095Y-66832438D02*
X140315714Y-66880057D01*
X140315714Y-66880057D02*
X140363333Y-66975295D01*
X140363333Y-66975295D02*
X140363333Y-67118152D01*
X140363333Y-67118152D02*
X140315714Y-67213390D01*
X140315714Y-67213390D02*
X140268095Y-67261009D01*
X140268095Y-67261009D02*
X140172857Y-67308628D01*
X140172857Y-67308628D02*
X139791905Y-67308628D01*
X140696667Y-66784819D02*
X141363333Y-66784819D01*
X141363333Y-66784819D02*
X140934762Y-67784819D01*
X111547142Y-67874819D02*
X111213809Y-67398628D01*
X110975714Y-67874819D02*
X110975714Y-66874819D01*
X110975714Y-66874819D02*
X111356666Y-66874819D01*
X111356666Y-66874819D02*
X111451904Y-66922438D01*
X111451904Y-66922438D02*
X111499523Y-66970057D01*
X111499523Y-66970057D02*
X111547142Y-67065295D01*
X111547142Y-67065295D02*
X111547142Y-67208152D01*
X111547142Y-67208152D02*
X111499523Y-67303390D01*
X111499523Y-67303390D02*
X111451904Y-67351009D01*
X111451904Y-67351009D02*
X111356666Y-67398628D01*
X111356666Y-67398628D02*
X110975714Y-67398628D01*
X111928095Y-66970057D02*
X111975714Y-66922438D01*
X111975714Y-66922438D02*
X112070952Y-66874819D01*
X112070952Y-66874819D02*
X112309047Y-66874819D01*
X112309047Y-66874819D02*
X112404285Y-66922438D01*
X112404285Y-66922438D02*
X112451904Y-66970057D01*
X112451904Y-66970057D02*
X112499523Y-67065295D01*
X112499523Y-67065295D02*
X112499523Y-67160533D01*
X112499523Y-67160533D02*
X112451904Y-67303390D01*
X112451904Y-67303390D02*
X111880476Y-67874819D01*
X111880476Y-67874819D02*
X112499523Y-67874819D01*
X113451904Y-67874819D02*
X112880476Y-67874819D01*
X113166190Y-67874819D02*
X113166190Y-66874819D01*
X113166190Y-66874819D02*
X113070952Y-67017676D01*
X113070952Y-67017676D02*
X112975714Y-67112914D01*
X112975714Y-67112914D02*
X112880476Y-67160533D01*
X159126667Y-64207200D02*
X159269524Y-64254819D01*
X159269524Y-64254819D02*
X159507619Y-64254819D01*
X159507619Y-64254819D02*
X159602857Y-64207200D01*
X159602857Y-64207200D02*
X159650476Y-64159580D01*
X159650476Y-64159580D02*
X159698095Y-64064342D01*
X159698095Y-64064342D02*
X159698095Y-63969104D01*
X159698095Y-63969104D02*
X159650476Y-63873866D01*
X159650476Y-63873866D02*
X159602857Y-63826247D01*
X159602857Y-63826247D02*
X159507619Y-63778628D01*
X159507619Y-63778628D02*
X159317143Y-63731009D01*
X159317143Y-63731009D02*
X159221905Y-63683390D01*
X159221905Y-63683390D02*
X159174286Y-63635771D01*
X159174286Y-63635771D02*
X159126667Y-63540533D01*
X159126667Y-63540533D02*
X159126667Y-63445295D01*
X159126667Y-63445295D02*
X159174286Y-63350057D01*
X159174286Y-63350057D02*
X159221905Y-63302438D01*
X159221905Y-63302438D02*
X159317143Y-63254819D01*
X159317143Y-63254819D02*
X159555238Y-63254819D01*
X159555238Y-63254819D02*
X159698095Y-63302438D01*
X160031429Y-63254819D02*
X160269524Y-64254819D01*
X160269524Y-64254819D02*
X160460000Y-63540533D01*
X160460000Y-63540533D02*
X160650476Y-64254819D01*
X160650476Y-64254819D02*
X160888572Y-63254819D01*
X161221905Y-63350057D02*
X161269524Y-63302438D01*
X161269524Y-63302438D02*
X161364762Y-63254819D01*
X161364762Y-63254819D02*
X161602857Y-63254819D01*
X161602857Y-63254819D02*
X161698095Y-63302438D01*
X161698095Y-63302438D02*
X161745714Y-63350057D01*
X161745714Y-63350057D02*
X161793333Y-63445295D01*
X161793333Y-63445295D02*
X161793333Y-63540533D01*
X161793333Y-63540533D02*
X161745714Y-63683390D01*
X161745714Y-63683390D02*
X161174286Y-64254819D01*
X161174286Y-64254819D02*
X161793333Y-64254819D01*
X115537142Y-54684819D02*
X115203809Y-54208628D01*
X114965714Y-54684819D02*
X114965714Y-53684819D01*
X114965714Y-53684819D02*
X115346666Y-53684819D01*
X115346666Y-53684819D02*
X115441904Y-53732438D01*
X115441904Y-53732438D02*
X115489523Y-53780057D01*
X115489523Y-53780057D02*
X115537142Y-53875295D01*
X115537142Y-53875295D02*
X115537142Y-54018152D01*
X115537142Y-54018152D02*
X115489523Y-54113390D01*
X115489523Y-54113390D02*
X115441904Y-54161009D01*
X115441904Y-54161009D02*
X115346666Y-54208628D01*
X115346666Y-54208628D02*
X114965714Y-54208628D01*
X115918095Y-53780057D02*
X115965714Y-53732438D01*
X115965714Y-53732438D02*
X116060952Y-53684819D01*
X116060952Y-53684819D02*
X116299047Y-53684819D01*
X116299047Y-53684819D02*
X116394285Y-53732438D01*
X116394285Y-53732438D02*
X116441904Y-53780057D01*
X116441904Y-53780057D02*
X116489523Y-53875295D01*
X116489523Y-53875295D02*
X116489523Y-53970533D01*
X116489523Y-53970533D02*
X116441904Y-54113390D01*
X116441904Y-54113390D02*
X115870476Y-54684819D01*
X115870476Y-54684819D02*
X116489523Y-54684819D01*
X117108571Y-53684819D02*
X117203809Y-53684819D01*
X117203809Y-53684819D02*
X117299047Y-53732438D01*
X117299047Y-53732438D02*
X117346666Y-53780057D01*
X117346666Y-53780057D02*
X117394285Y-53875295D01*
X117394285Y-53875295D02*
X117441904Y-54065771D01*
X117441904Y-54065771D02*
X117441904Y-54303866D01*
X117441904Y-54303866D02*
X117394285Y-54494342D01*
X117394285Y-54494342D02*
X117346666Y-54589580D01*
X117346666Y-54589580D02*
X117299047Y-54637200D01*
X117299047Y-54637200D02*
X117203809Y-54684819D01*
X117203809Y-54684819D02*
X117108571Y-54684819D01*
X117108571Y-54684819D02*
X117013333Y-54637200D01*
X117013333Y-54637200D02*
X116965714Y-54589580D01*
X116965714Y-54589580D02*
X116918095Y-54494342D01*
X116918095Y-54494342D02*
X116870476Y-54303866D01*
X116870476Y-54303866D02*
X116870476Y-54065771D01*
X116870476Y-54065771D02*
X116918095Y-53875295D01*
X116918095Y-53875295D02*
X116965714Y-53780057D01*
X116965714Y-53780057D02*
X117013333Y-53732438D01*
X117013333Y-53732438D02*
X117108571Y-53684819D01*
X144143333Y-54834819D02*
X143810000Y-54358628D01*
X143571905Y-54834819D02*
X143571905Y-53834819D01*
X143571905Y-53834819D02*
X143952857Y-53834819D01*
X143952857Y-53834819D02*
X144048095Y-53882438D01*
X144048095Y-53882438D02*
X144095714Y-53930057D01*
X144095714Y-53930057D02*
X144143333Y-54025295D01*
X144143333Y-54025295D02*
X144143333Y-54168152D01*
X144143333Y-54168152D02*
X144095714Y-54263390D01*
X144095714Y-54263390D02*
X144048095Y-54311009D01*
X144048095Y-54311009D02*
X143952857Y-54358628D01*
X143952857Y-54358628D02*
X143571905Y-54358628D01*
X145000476Y-53834819D02*
X144810000Y-53834819D01*
X144810000Y-53834819D02*
X144714762Y-53882438D01*
X144714762Y-53882438D02*
X144667143Y-53930057D01*
X144667143Y-53930057D02*
X144571905Y-54072914D01*
X144571905Y-54072914D02*
X144524286Y-54263390D01*
X144524286Y-54263390D02*
X144524286Y-54644342D01*
X144524286Y-54644342D02*
X144571905Y-54739580D01*
X144571905Y-54739580D02*
X144619524Y-54787200D01*
X144619524Y-54787200D02*
X144714762Y-54834819D01*
X144714762Y-54834819D02*
X144905238Y-54834819D01*
X144905238Y-54834819D02*
X145000476Y-54787200D01*
X145000476Y-54787200D02*
X145048095Y-54739580D01*
X145048095Y-54739580D02*
X145095714Y-54644342D01*
X145095714Y-54644342D02*
X145095714Y-54406247D01*
X145095714Y-54406247D02*
X145048095Y-54311009D01*
X145048095Y-54311009D02*
X145000476Y-54263390D01*
X145000476Y-54263390D02*
X144905238Y-54215771D01*
X144905238Y-54215771D02*
X144714762Y-54215771D01*
X144714762Y-54215771D02*
X144619524Y-54263390D01*
X144619524Y-54263390D02*
X144571905Y-54311009D01*
X144571905Y-54311009D02*
X144524286Y-54406247D01*
X152976666Y-68994819D02*
X152976666Y-69709104D01*
X152976666Y-69709104D02*
X152929047Y-69851961D01*
X152929047Y-69851961D02*
X152833809Y-69947200D01*
X152833809Y-69947200D02*
X152690952Y-69994819D01*
X152690952Y-69994819D02*
X152595714Y-69994819D01*
X153357619Y-68994819D02*
X154024285Y-68994819D01*
X154024285Y-68994819D02*
X153595714Y-69994819D01*
X135857142Y-54674819D02*
X135523809Y-54198628D01*
X135285714Y-54674819D02*
X135285714Y-53674819D01*
X135285714Y-53674819D02*
X135666666Y-53674819D01*
X135666666Y-53674819D02*
X135761904Y-53722438D01*
X135761904Y-53722438D02*
X135809523Y-53770057D01*
X135809523Y-53770057D02*
X135857142Y-53865295D01*
X135857142Y-53865295D02*
X135857142Y-54008152D01*
X135857142Y-54008152D02*
X135809523Y-54103390D01*
X135809523Y-54103390D02*
X135761904Y-54151009D01*
X135761904Y-54151009D02*
X135666666Y-54198628D01*
X135666666Y-54198628D02*
X135285714Y-54198628D01*
X136809523Y-54674819D02*
X136238095Y-54674819D01*
X136523809Y-54674819D02*
X136523809Y-53674819D01*
X136523809Y-53674819D02*
X136428571Y-53817676D01*
X136428571Y-53817676D02*
X136333333Y-53912914D01*
X136333333Y-53912914D02*
X136238095Y-53960533D01*
X137428571Y-53674819D02*
X137523809Y-53674819D01*
X137523809Y-53674819D02*
X137619047Y-53722438D01*
X137619047Y-53722438D02*
X137666666Y-53770057D01*
X137666666Y-53770057D02*
X137714285Y-53865295D01*
X137714285Y-53865295D02*
X137761904Y-54055771D01*
X137761904Y-54055771D02*
X137761904Y-54293866D01*
X137761904Y-54293866D02*
X137714285Y-54484342D01*
X137714285Y-54484342D02*
X137666666Y-54579580D01*
X137666666Y-54579580D02*
X137619047Y-54627200D01*
X137619047Y-54627200D02*
X137523809Y-54674819D01*
X137523809Y-54674819D02*
X137428571Y-54674819D01*
X137428571Y-54674819D02*
X137333333Y-54627200D01*
X137333333Y-54627200D02*
X137285714Y-54579580D01*
X137285714Y-54579580D02*
X137238095Y-54484342D01*
X137238095Y-54484342D02*
X137190476Y-54293866D01*
X137190476Y-54293866D02*
X137190476Y-54055771D01*
X137190476Y-54055771D02*
X137238095Y-53865295D01*
X137238095Y-53865295D02*
X137285714Y-53770057D01*
X137285714Y-53770057D02*
X137333333Y-53722438D01*
X137333333Y-53722438D02*
X137428571Y-53674819D01*
X89786666Y-64254819D02*
X89786666Y-64969104D01*
X89786666Y-64969104D02*
X89739047Y-65111961D01*
X89739047Y-65111961D02*
X89643809Y-65207200D01*
X89643809Y-65207200D02*
X89500952Y-65254819D01*
X89500952Y-65254819D02*
X89405714Y-65254819D01*
X90739047Y-64254819D02*
X90262857Y-64254819D01*
X90262857Y-64254819D02*
X90215238Y-64731009D01*
X90215238Y-64731009D02*
X90262857Y-64683390D01*
X90262857Y-64683390D02*
X90358095Y-64635771D01*
X90358095Y-64635771D02*
X90596190Y-64635771D01*
X90596190Y-64635771D02*
X90691428Y-64683390D01*
X90691428Y-64683390D02*
X90739047Y-64731009D01*
X90739047Y-64731009D02*
X90786666Y-64826247D01*
X90786666Y-64826247D02*
X90786666Y-65064342D01*
X90786666Y-65064342D02*
X90739047Y-65159580D01*
X90739047Y-65159580D02*
X90691428Y-65207200D01*
X90691428Y-65207200D02*
X90596190Y-65254819D01*
X90596190Y-65254819D02*
X90358095Y-65254819D01*
X90358095Y-65254819D02*
X90262857Y-65207200D01*
X90262857Y-65207200D02*
X90215238Y-65159580D01*
X116784819Y-91432857D02*
X116308628Y-91766190D01*
X116784819Y-92004285D02*
X115784819Y-92004285D01*
X115784819Y-92004285D02*
X115784819Y-91623333D01*
X115784819Y-91623333D02*
X115832438Y-91528095D01*
X115832438Y-91528095D02*
X115880057Y-91480476D01*
X115880057Y-91480476D02*
X115975295Y-91432857D01*
X115975295Y-91432857D02*
X116118152Y-91432857D01*
X116118152Y-91432857D02*
X116213390Y-91480476D01*
X116213390Y-91480476D02*
X116261009Y-91528095D01*
X116261009Y-91528095D02*
X116308628Y-91623333D01*
X116308628Y-91623333D02*
X116308628Y-92004285D01*
X115880057Y-91051904D02*
X115832438Y-91004285D01*
X115832438Y-91004285D02*
X115784819Y-90909047D01*
X115784819Y-90909047D02*
X115784819Y-90670952D01*
X115784819Y-90670952D02*
X115832438Y-90575714D01*
X115832438Y-90575714D02*
X115880057Y-90528095D01*
X115880057Y-90528095D02*
X115975295Y-90480476D01*
X115975295Y-90480476D02*
X116070533Y-90480476D01*
X116070533Y-90480476D02*
X116213390Y-90528095D01*
X116213390Y-90528095D02*
X116784819Y-91099523D01*
X116784819Y-91099523D02*
X116784819Y-90480476D01*
X115784819Y-89623333D02*
X115784819Y-89813809D01*
X115784819Y-89813809D02*
X115832438Y-89909047D01*
X115832438Y-89909047D02*
X115880057Y-89956666D01*
X115880057Y-89956666D02*
X116022914Y-90051904D01*
X116022914Y-90051904D02*
X116213390Y-90099523D01*
X116213390Y-90099523D02*
X116594342Y-90099523D01*
X116594342Y-90099523D02*
X116689580Y-90051904D01*
X116689580Y-90051904D02*
X116737200Y-90004285D01*
X116737200Y-90004285D02*
X116784819Y-89909047D01*
X116784819Y-89909047D02*
X116784819Y-89718571D01*
X116784819Y-89718571D02*
X116737200Y-89623333D01*
X116737200Y-89623333D02*
X116689580Y-89575714D01*
X116689580Y-89575714D02*
X116594342Y-89528095D01*
X116594342Y-89528095D02*
X116356247Y-89528095D01*
X116356247Y-89528095D02*
X116261009Y-89575714D01*
X116261009Y-89575714D02*
X116213390Y-89623333D01*
X116213390Y-89623333D02*
X116165771Y-89718571D01*
X116165771Y-89718571D02*
X116165771Y-89909047D01*
X116165771Y-89909047D02*
X116213390Y-90004285D01*
X116213390Y-90004285D02*
X116261009Y-90051904D01*
X116261009Y-90051904D02*
X116356247Y-90099523D01*
X161144819Y-75329523D02*
X161859104Y-75329523D01*
X161859104Y-75329523D02*
X162001961Y-75377142D01*
X162001961Y-75377142D02*
X162097200Y-75472380D01*
X162097200Y-75472380D02*
X162144819Y-75615237D01*
X162144819Y-75615237D02*
X162144819Y-75710475D01*
X162144819Y-74329523D02*
X162144819Y-74900951D01*
X162144819Y-74615237D02*
X161144819Y-74615237D01*
X161144819Y-74615237D02*
X161287676Y-74710475D01*
X161287676Y-74710475D02*
X161382914Y-74805713D01*
X161382914Y-74805713D02*
X161430533Y-74900951D01*
X162144819Y-73377142D02*
X162144819Y-73948570D01*
X162144819Y-73662856D02*
X161144819Y-73662856D01*
X161144819Y-73662856D02*
X161287676Y-73758094D01*
X161287676Y-73758094D02*
X161382914Y-73853332D01*
X161382914Y-73853332D02*
X161430533Y-73948570D01*
X144143333Y-67734819D02*
X143810000Y-67258628D01*
X143571905Y-67734819D02*
X143571905Y-66734819D01*
X143571905Y-66734819D02*
X143952857Y-66734819D01*
X143952857Y-66734819D02*
X144048095Y-66782438D01*
X144048095Y-66782438D02*
X144095714Y-66830057D01*
X144095714Y-66830057D02*
X144143333Y-66925295D01*
X144143333Y-66925295D02*
X144143333Y-67068152D01*
X144143333Y-67068152D02*
X144095714Y-67163390D01*
X144095714Y-67163390D02*
X144048095Y-67211009D01*
X144048095Y-67211009D02*
X143952857Y-67258628D01*
X143952857Y-67258628D02*
X143571905Y-67258628D01*
X145048095Y-66734819D02*
X144571905Y-66734819D01*
X144571905Y-66734819D02*
X144524286Y-67211009D01*
X144524286Y-67211009D02*
X144571905Y-67163390D01*
X144571905Y-67163390D02*
X144667143Y-67115771D01*
X144667143Y-67115771D02*
X144905238Y-67115771D01*
X144905238Y-67115771D02*
X145000476Y-67163390D01*
X145000476Y-67163390D02*
X145048095Y-67211009D01*
X145048095Y-67211009D02*
X145095714Y-67306247D01*
X145095714Y-67306247D02*
X145095714Y-67544342D01*
X145095714Y-67544342D02*
X145048095Y-67639580D01*
X145048095Y-67639580D02*
X145000476Y-67687200D01*
X145000476Y-67687200D02*
X144905238Y-67734819D01*
X144905238Y-67734819D02*
X144667143Y-67734819D01*
X144667143Y-67734819D02*
X144571905Y-67687200D01*
X144571905Y-67687200D02*
X144524286Y-67639580D01*
X148362835Y-74387271D02*
X148410455Y-74434890D01*
X148410455Y-74434890D02*
X148458074Y-74577747D01*
X148458074Y-74577747D02*
X148458074Y-74672985D01*
X148458074Y-74672985D02*
X148410455Y-74815842D01*
X148410455Y-74815842D02*
X148315216Y-74911080D01*
X148315216Y-74911080D02*
X148219978Y-74958699D01*
X148219978Y-74958699D02*
X148029502Y-75006318D01*
X148029502Y-75006318D02*
X147886645Y-75006318D01*
X147886645Y-75006318D02*
X147696169Y-74958699D01*
X147696169Y-74958699D02*
X147600931Y-74911080D01*
X147600931Y-74911080D02*
X147505693Y-74815842D01*
X147505693Y-74815842D02*
X147458074Y-74672985D01*
X147458074Y-74672985D02*
X147458074Y-74577747D01*
X147458074Y-74577747D02*
X147505693Y-74434890D01*
X147505693Y-74434890D02*
X147553312Y-74387271D01*
X148458074Y-73434890D02*
X148458074Y-74006318D01*
X148458074Y-73720604D02*
X147458074Y-73720604D01*
X147458074Y-73720604D02*
X147600931Y-73815842D01*
X147600931Y-73815842D02*
X147696169Y-73911080D01*
X147696169Y-73911080D02*
X147743788Y-74006318D01*
X125717142Y-71954819D02*
X125383809Y-71478628D01*
X125145714Y-71954819D02*
X125145714Y-70954819D01*
X125145714Y-70954819D02*
X125526666Y-70954819D01*
X125526666Y-70954819D02*
X125621904Y-71002438D01*
X125621904Y-71002438D02*
X125669523Y-71050057D01*
X125669523Y-71050057D02*
X125717142Y-71145295D01*
X125717142Y-71145295D02*
X125717142Y-71288152D01*
X125717142Y-71288152D02*
X125669523Y-71383390D01*
X125669523Y-71383390D02*
X125621904Y-71431009D01*
X125621904Y-71431009D02*
X125526666Y-71478628D01*
X125526666Y-71478628D02*
X125145714Y-71478628D01*
X126098095Y-71050057D02*
X126145714Y-71002438D01*
X126145714Y-71002438D02*
X126240952Y-70954819D01*
X126240952Y-70954819D02*
X126479047Y-70954819D01*
X126479047Y-70954819D02*
X126574285Y-71002438D01*
X126574285Y-71002438D02*
X126621904Y-71050057D01*
X126621904Y-71050057D02*
X126669523Y-71145295D01*
X126669523Y-71145295D02*
X126669523Y-71240533D01*
X126669523Y-71240533D02*
X126621904Y-71383390D01*
X126621904Y-71383390D02*
X126050476Y-71954819D01*
X126050476Y-71954819D02*
X126669523Y-71954819D01*
X127526666Y-71288152D02*
X127526666Y-71954819D01*
X127288571Y-70907200D02*
X127050476Y-71621485D01*
X127050476Y-71621485D02*
X127669523Y-71621485D01*
X131647142Y-54544819D02*
X131313809Y-54068628D01*
X131075714Y-54544819D02*
X131075714Y-53544819D01*
X131075714Y-53544819D02*
X131456666Y-53544819D01*
X131456666Y-53544819D02*
X131551904Y-53592438D01*
X131551904Y-53592438D02*
X131599523Y-53640057D01*
X131599523Y-53640057D02*
X131647142Y-53735295D01*
X131647142Y-53735295D02*
X131647142Y-53878152D01*
X131647142Y-53878152D02*
X131599523Y-53973390D01*
X131599523Y-53973390D02*
X131551904Y-54021009D01*
X131551904Y-54021009D02*
X131456666Y-54068628D01*
X131456666Y-54068628D02*
X131075714Y-54068628D01*
X132599523Y-54544819D02*
X132028095Y-54544819D01*
X132313809Y-54544819D02*
X132313809Y-53544819D01*
X132313809Y-53544819D02*
X132218571Y-53687676D01*
X132218571Y-53687676D02*
X132123333Y-53782914D01*
X132123333Y-53782914D02*
X132028095Y-53830533D01*
X132980476Y-53640057D02*
X133028095Y-53592438D01*
X133028095Y-53592438D02*
X133123333Y-53544819D01*
X133123333Y-53544819D02*
X133361428Y-53544819D01*
X133361428Y-53544819D02*
X133456666Y-53592438D01*
X133456666Y-53592438D02*
X133504285Y-53640057D01*
X133504285Y-53640057D02*
X133551904Y-53735295D01*
X133551904Y-53735295D02*
X133551904Y-53830533D01*
X133551904Y-53830533D02*
X133504285Y-53973390D01*
X133504285Y-53973390D02*
X132932857Y-54544819D01*
X132932857Y-54544819D02*
X133551904Y-54544819D01*
X159126667Y-56027200D02*
X159269524Y-56074819D01*
X159269524Y-56074819D02*
X159507619Y-56074819D01*
X159507619Y-56074819D02*
X159602857Y-56027200D01*
X159602857Y-56027200D02*
X159650476Y-55979580D01*
X159650476Y-55979580D02*
X159698095Y-55884342D01*
X159698095Y-55884342D02*
X159698095Y-55789104D01*
X159698095Y-55789104D02*
X159650476Y-55693866D01*
X159650476Y-55693866D02*
X159602857Y-55646247D01*
X159602857Y-55646247D02*
X159507619Y-55598628D01*
X159507619Y-55598628D02*
X159317143Y-55551009D01*
X159317143Y-55551009D02*
X159221905Y-55503390D01*
X159221905Y-55503390D02*
X159174286Y-55455771D01*
X159174286Y-55455771D02*
X159126667Y-55360533D01*
X159126667Y-55360533D02*
X159126667Y-55265295D01*
X159126667Y-55265295D02*
X159174286Y-55170057D01*
X159174286Y-55170057D02*
X159221905Y-55122438D01*
X159221905Y-55122438D02*
X159317143Y-55074819D01*
X159317143Y-55074819D02*
X159555238Y-55074819D01*
X159555238Y-55074819D02*
X159698095Y-55122438D01*
X160031429Y-55074819D02*
X160269524Y-56074819D01*
X160269524Y-56074819D02*
X160460000Y-55360533D01*
X160460000Y-55360533D02*
X160650476Y-56074819D01*
X160650476Y-56074819D02*
X160888572Y-55074819D01*
X161793333Y-56074819D02*
X161221905Y-56074819D01*
X161507619Y-56074819D02*
X161507619Y-55074819D01*
X161507619Y-55074819D02*
X161412381Y-55217676D01*
X161412381Y-55217676D02*
X161317143Y-55312914D01*
X161317143Y-55312914D02*
X161221905Y-55360533D01*
X131627142Y-67674819D02*
X131293809Y-67198628D01*
X131055714Y-67674819D02*
X131055714Y-66674819D01*
X131055714Y-66674819D02*
X131436666Y-66674819D01*
X131436666Y-66674819D02*
X131531904Y-66722438D01*
X131531904Y-66722438D02*
X131579523Y-66770057D01*
X131579523Y-66770057D02*
X131627142Y-66865295D01*
X131627142Y-66865295D02*
X131627142Y-67008152D01*
X131627142Y-67008152D02*
X131579523Y-67103390D01*
X131579523Y-67103390D02*
X131531904Y-67151009D01*
X131531904Y-67151009D02*
X131436666Y-67198628D01*
X131436666Y-67198628D02*
X131055714Y-67198628D01*
X132579523Y-67674819D02*
X132008095Y-67674819D01*
X132293809Y-67674819D02*
X132293809Y-66674819D01*
X132293809Y-66674819D02*
X132198571Y-66817676D01*
X132198571Y-66817676D02*
X132103333Y-66912914D01*
X132103333Y-66912914D02*
X132008095Y-66960533D01*
X133531904Y-67674819D02*
X132960476Y-67674819D01*
X133246190Y-67674819D02*
X133246190Y-66674819D01*
X133246190Y-66674819D02*
X133150952Y-66817676D01*
X133150952Y-66817676D02*
X133055714Y-66912914D01*
X133055714Y-66912914D02*
X132960476Y-66960533D01*
X111527142Y-54704819D02*
X111193809Y-54228628D01*
X110955714Y-54704819D02*
X110955714Y-53704819D01*
X110955714Y-53704819D02*
X111336666Y-53704819D01*
X111336666Y-53704819D02*
X111431904Y-53752438D01*
X111431904Y-53752438D02*
X111479523Y-53800057D01*
X111479523Y-53800057D02*
X111527142Y-53895295D01*
X111527142Y-53895295D02*
X111527142Y-54038152D01*
X111527142Y-54038152D02*
X111479523Y-54133390D01*
X111479523Y-54133390D02*
X111431904Y-54181009D01*
X111431904Y-54181009D02*
X111336666Y-54228628D01*
X111336666Y-54228628D02*
X110955714Y-54228628D01*
X111908095Y-53800057D02*
X111955714Y-53752438D01*
X111955714Y-53752438D02*
X112050952Y-53704819D01*
X112050952Y-53704819D02*
X112289047Y-53704819D01*
X112289047Y-53704819D02*
X112384285Y-53752438D01*
X112384285Y-53752438D02*
X112431904Y-53800057D01*
X112431904Y-53800057D02*
X112479523Y-53895295D01*
X112479523Y-53895295D02*
X112479523Y-53990533D01*
X112479523Y-53990533D02*
X112431904Y-54133390D01*
X112431904Y-54133390D02*
X111860476Y-54704819D01*
X111860476Y-54704819D02*
X112479523Y-54704819D01*
X112860476Y-53800057D02*
X112908095Y-53752438D01*
X112908095Y-53752438D02*
X113003333Y-53704819D01*
X113003333Y-53704819D02*
X113241428Y-53704819D01*
X113241428Y-53704819D02*
X113336666Y-53752438D01*
X113336666Y-53752438D02*
X113384285Y-53800057D01*
X113384285Y-53800057D02*
X113431904Y-53895295D01*
X113431904Y-53895295D02*
X113431904Y-53990533D01*
X113431904Y-53990533D02*
X113384285Y-54133390D01*
X113384285Y-54133390D02*
X112812857Y-54704819D01*
X112812857Y-54704819D02*
X113431904Y-54704819D01*
X152940476Y-91874819D02*
X152940476Y-92589104D01*
X152940476Y-92589104D02*
X152892857Y-92731961D01*
X152892857Y-92731961D02*
X152797619Y-92827200D01*
X152797619Y-92827200D02*
X152654762Y-92874819D01*
X152654762Y-92874819D02*
X152559524Y-92874819D01*
X153940476Y-92874819D02*
X153369048Y-92874819D01*
X153654762Y-92874819D02*
X153654762Y-91874819D01*
X153654762Y-91874819D02*
X153559524Y-92017676D01*
X153559524Y-92017676D02*
X153464286Y-92112914D01*
X153464286Y-92112914D02*
X153369048Y-92160533D01*
X154321429Y-91970057D02*
X154369048Y-91922438D01*
X154369048Y-91922438D02*
X154464286Y-91874819D01*
X154464286Y-91874819D02*
X154702381Y-91874819D01*
X154702381Y-91874819D02*
X154797619Y-91922438D01*
X154797619Y-91922438D02*
X154845238Y-91970057D01*
X154845238Y-91970057D02*
X154892857Y-92065295D01*
X154892857Y-92065295D02*
X154892857Y-92160533D01*
X154892857Y-92160533D02*
X154845238Y-92303390D01*
X154845238Y-92303390D02*
X154273810Y-92874819D01*
X154273810Y-92874819D02*
X154892857Y-92874819D01*
X152033333Y-59604819D02*
X151700000Y-59128628D01*
X151461905Y-59604819D02*
X151461905Y-58604819D01*
X151461905Y-58604819D02*
X151842857Y-58604819D01*
X151842857Y-58604819D02*
X151938095Y-58652438D01*
X151938095Y-58652438D02*
X151985714Y-58700057D01*
X151985714Y-58700057D02*
X152033333Y-58795295D01*
X152033333Y-58795295D02*
X152033333Y-58938152D01*
X152033333Y-58938152D02*
X151985714Y-59033390D01*
X151985714Y-59033390D02*
X151938095Y-59081009D01*
X151938095Y-59081009D02*
X151842857Y-59128628D01*
X151842857Y-59128628D02*
X151461905Y-59128628D01*
X152985714Y-59604819D02*
X152414286Y-59604819D01*
X152700000Y-59604819D02*
X152700000Y-58604819D01*
X152700000Y-58604819D02*
X152604762Y-58747676D01*
X152604762Y-58747676D02*
X152509524Y-58842914D01*
X152509524Y-58842914D02*
X152414286Y-58890533D01*
X141634819Y-70802857D02*
X141158628Y-71136190D01*
X141634819Y-71374285D02*
X140634819Y-71374285D01*
X140634819Y-71374285D02*
X140634819Y-70993333D01*
X140634819Y-70993333D02*
X140682438Y-70898095D01*
X140682438Y-70898095D02*
X140730057Y-70850476D01*
X140730057Y-70850476D02*
X140825295Y-70802857D01*
X140825295Y-70802857D02*
X140968152Y-70802857D01*
X140968152Y-70802857D02*
X141063390Y-70850476D01*
X141063390Y-70850476D02*
X141111009Y-70898095D01*
X141111009Y-70898095D02*
X141158628Y-70993333D01*
X141158628Y-70993333D02*
X141158628Y-71374285D01*
X140730057Y-70421904D02*
X140682438Y-70374285D01*
X140682438Y-70374285D02*
X140634819Y-70279047D01*
X140634819Y-70279047D02*
X140634819Y-70040952D01*
X140634819Y-70040952D02*
X140682438Y-69945714D01*
X140682438Y-69945714D02*
X140730057Y-69898095D01*
X140730057Y-69898095D02*
X140825295Y-69850476D01*
X140825295Y-69850476D02*
X140920533Y-69850476D01*
X140920533Y-69850476D02*
X141063390Y-69898095D01*
X141063390Y-69898095D02*
X141634819Y-70469523D01*
X141634819Y-70469523D02*
X141634819Y-69850476D01*
X140634819Y-69517142D02*
X140634819Y-68850476D01*
X140634819Y-68850476D02*
X141634819Y-69279047D01*
X119457142Y-67784819D02*
X119123809Y-67308628D01*
X118885714Y-67784819D02*
X118885714Y-66784819D01*
X118885714Y-66784819D02*
X119266666Y-66784819D01*
X119266666Y-66784819D02*
X119361904Y-66832438D01*
X119361904Y-66832438D02*
X119409523Y-66880057D01*
X119409523Y-66880057D02*
X119457142Y-66975295D01*
X119457142Y-66975295D02*
X119457142Y-67118152D01*
X119457142Y-67118152D02*
X119409523Y-67213390D01*
X119409523Y-67213390D02*
X119361904Y-67261009D01*
X119361904Y-67261009D02*
X119266666Y-67308628D01*
X119266666Y-67308628D02*
X118885714Y-67308628D01*
X120409523Y-67784819D02*
X119838095Y-67784819D01*
X120123809Y-67784819D02*
X120123809Y-66784819D01*
X120123809Y-66784819D02*
X120028571Y-66927676D01*
X120028571Y-66927676D02*
X119933333Y-67022914D01*
X119933333Y-67022914D02*
X119838095Y-67070533D01*
X120742857Y-66784819D02*
X121409523Y-66784819D01*
X121409523Y-66784819D02*
X120980952Y-67784819D01*
X122144819Y-77152857D02*
X121668628Y-77486190D01*
X122144819Y-77724285D02*
X121144819Y-77724285D01*
X121144819Y-77724285D02*
X121144819Y-77343333D01*
X121144819Y-77343333D02*
X121192438Y-77248095D01*
X121192438Y-77248095D02*
X121240057Y-77200476D01*
X121240057Y-77200476D02*
X121335295Y-77152857D01*
X121335295Y-77152857D02*
X121478152Y-77152857D01*
X121478152Y-77152857D02*
X121573390Y-77200476D01*
X121573390Y-77200476D02*
X121621009Y-77248095D01*
X121621009Y-77248095D02*
X121668628Y-77343333D01*
X121668628Y-77343333D02*
X121668628Y-77724285D01*
X121240057Y-76771904D02*
X121192438Y-76724285D01*
X121192438Y-76724285D02*
X121144819Y-76629047D01*
X121144819Y-76629047D02*
X121144819Y-76390952D01*
X121144819Y-76390952D02*
X121192438Y-76295714D01*
X121192438Y-76295714D02*
X121240057Y-76248095D01*
X121240057Y-76248095D02*
X121335295Y-76200476D01*
X121335295Y-76200476D02*
X121430533Y-76200476D01*
X121430533Y-76200476D02*
X121573390Y-76248095D01*
X121573390Y-76248095D02*
X122144819Y-76819523D01*
X122144819Y-76819523D02*
X122144819Y-76200476D01*
X121144819Y-75295714D02*
X121144819Y-75771904D01*
X121144819Y-75771904D02*
X121621009Y-75819523D01*
X121621009Y-75819523D02*
X121573390Y-75771904D01*
X121573390Y-75771904D02*
X121525771Y-75676666D01*
X121525771Y-75676666D02*
X121525771Y-75438571D01*
X121525771Y-75438571D02*
X121573390Y-75343333D01*
X121573390Y-75343333D02*
X121621009Y-75295714D01*
X121621009Y-75295714D02*
X121716247Y-75248095D01*
X121716247Y-75248095D02*
X121954342Y-75248095D01*
X121954342Y-75248095D02*
X122049580Y-75295714D01*
X122049580Y-75295714D02*
X122097200Y-75343333D01*
X122097200Y-75343333D02*
X122144819Y-75438571D01*
X122144819Y-75438571D02*
X122144819Y-75676666D01*
X122144819Y-75676666D02*
X122097200Y-75771904D01*
X122097200Y-75771904D02*
X122049580Y-75819523D01*
X123577142Y-54574819D02*
X123243809Y-54098628D01*
X123005714Y-54574819D02*
X123005714Y-53574819D01*
X123005714Y-53574819D02*
X123386666Y-53574819D01*
X123386666Y-53574819D02*
X123481904Y-53622438D01*
X123481904Y-53622438D02*
X123529523Y-53670057D01*
X123529523Y-53670057D02*
X123577142Y-53765295D01*
X123577142Y-53765295D02*
X123577142Y-53908152D01*
X123577142Y-53908152D02*
X123529523Y-54003390D01*
X123529523Y-54003390D02*
X123481904Y-54051009D01*
X123481904Y-54051009D02*
X123386666Y-54098628D01*
X123386666Y-54098628D02*
X123005714Y-54098628D01*
X124529523Y-54574819D02*
X123958095Y-54574819D01*
X124243809Y-54574819D02*
X124243809Y-53574819D01*
X124243809Y-53574819D02*
X124148571Y-53717676D01*
X124148571Y-53717676D02*
X124053333Y-53812914D01*
X124053333Y-53812914D02*
X123958095Y-53860533D01*
X125386666Y-53574819D02*
X125196190Y-53574819D01*
X125196190Y-53574819D02*
X125100952Y-53622438D01*
X125100952Y-53622438D02*
X125053333Y-53670057D01*
X125053333Y-53670057D02*
X124958095Y-53812914D01*
X124958095Y-53812914D02*
X124910476Y-54003390D01*
X124910476Y-54003390D02*
X124910476Y-54384342D01*
X124910476Y-54384342D02*
X124958095Y-54479580D01*
X124958095Y-54479580D02*
X125005714Y-54527200D01*
X125005714Y-54527200D02*
X125100952Y-54574819D01*
X125100952Y-54574819D02*
X125291428Y-54574819D01*
X125291428Y-54574819D02*
X125386666Y-54527200D01*
X125386666Y-54527200D02*
X125434285Y-54479580D01*
X125434285Y-54479580D02*
X125481904Y-54384342D01*
X125481904Y-54384342D02*
X125481904Y-54146247D01*
X125481904Y-54146247D02*
X125434285Y-54051009D01*
X125434285Y-54051009D02*
X125386666Y-54003390D01*
X125386666Y-54003390D02*
X125291428Y-53955771D01*
X125291428Y-53955771D02*
X125100952Y-53955771D01*
X125100952Y-53955771D02*
X125005714Y-54003390D01*
X125005714Y-54003390D02*
X124958095Y-54051009D01*
X124958095Y-54051009D02*
X124910476Y-54146247D01*
X131744819Y-89825238D02*
X131268628Y-90158571D01*
X131744819Y-90396666D02*
X130744819Y-90396666D01*
X130744819Y-90396666D02*
X130744819Y-90015714D01*
X130744819Y-90015714D02*
X130792438Y-89920476D01*
X130792438Y-89920476D02*
X130840057Y-89872857D01*
X130840057Y-89872857D02*
X130935295Y-89825238D01*
X130935295Y-89825238D02*
X131078152Y-89825238D01*
X131078152Y-89825238D02*
X131173390Y-89872857D01*
X131173390Y-89872857D02*
X131221009Y-89920476D01*
X131221009Y-89920476D02*
X131268628Y-90015714D01*
X131268628Y-90015714D02*
X131268628Y-90396666D01*
X130744819Y-89539523D02*
X131744819Y-89206190D01*
X131744819Y-89206190D02*
X130744819Y-88872857D01*
X131744819Y-88015714D02*
X131744819Y-88587142D01*
X131744819Y-88301428D02*
X130744819Y-88301428D01*
X130744819Y-88301428D02*
X130887676Y-88396666D01*
X130887676Y-88396666D02*
X130982914Y-88491904D01*
X130982914Y-88491904D02*
X131030533Y-88587142D01*
X152023333Y-67764819D02*
X151690000Y-67288628D01*
X151451905Y-67764819D02*
X151451905Y-66764819D01*
X151451905Y-66764819D02*
X151832857Y-66764819D01*
X151832857Y-66764819D02*
X151928095Y-66812438D01*
X151928095Y-66812438D02*
X151975714Y-66860057D01*
X151975714Y-66860057D02*
X152023333Y-66955295D01*
X152023333Y-66955295D02*
X152023333Y-67098152D01*
X152023333Y-67098152D02*
X151975714Y-67193390D01*
X151975714Y-67193390D02*
X151928095Y-67241009D01*
X151928095Y-67241009D02*
X151832857Y-67288628D01*
X151832857Y-67288628D02*
X151451905Y-67288628D01*
X152404286Y-66860057D02*
X152451905Y-66812438D01*
X152451905Y-66812438D02*
X152547143Y-66764819D01*
X152547143Y-66764819D02*
X152785238Y-66764819D01*
X152785238Y-66764819D02*
X152880476Y-66812438D01*
X152880476Y-66812438D02*
X152928095Y-66860057D01*
X152928095Y-66860057D02*
X152975714Y-66955295D01*
X152975714Y-66955295D02*
X152975714Y-67050533D01*
X152975714Y-67050533D02*
X152928095Y-67193390D01*
X152928095Y-67193390D02*
X152356667Y-67764819D01*
X152356667Y-67764819D02*
X152975714Y-67764819D01*
X136458095Y-74774819D02*
X136458095Y-75584342D01*
X136458095Y-75584342D02*
X136505714Y-75679580D01*
X136505714Y-75679580D02*
X136553333Y-75727200D01*
X136553333Y-75727200D02*
X136648571Y-75774819D01*
X136648571Y-75774819D02*
X136839047Y-75774819D01*
X136839047Y-75774819D02*
X136934285Y-75727200D01*
X136934285Y-75727200D02*
X136981904Y-75679580D01*
X136981904Y-75679580D02*
X137029523Y-75584342D01*
X137029523Y-75584342D02*
X137029523Y-74774819D01*
X138029523Y-75774819D02*
X137458095Y-75774819D01*
X137743809Y-75774819D02*
X137743809Y-74774819D01*
X137743809Y-74774819D02*
X137648571Y-74917676D01*
X137648571Y-74917676D02*
X137553333Y-75012914D01*
X137553333Y-75012914D02*
X137458095Y-75060533D01*
X126706666Y-88004819D02*
X126706666Y-88719104D01*
X126706666Y-88719104D02*
X126659047Y-88861961D01*
X126659047Y-88861961D02*
X126563809Y-88957200D01*
X126563809Y-88957200D02*
X126420952Y-89004819D01*
X126420952Y-89004819D02*
X126325714Y-89004819D01*
X127230476Y-89004819D02*
X127420952Y-89004819D01*
X127420952Y-89004819D02*
X127516190Y-88957200D01*
X127516190Y-88957200D02*
X127563809Y-88909580D01*
X127563809Y-88909580D02*
X127659047Y-88766723D01*
X127659047Y-88766723D02*
X127706666Y-88576247D01*
X127706666Y-88576247D02*
X127706666Y-88195295D01*
X127706666Y-88195295D02*
X127659047Y-88100057D01*
X127659047Y-88100057D02*
X127611428Y-88052438D01*
X127611428Y-88052438D02*
X127516190Y-88004819D01*
X127516190Y-88004819D02*
X127325714Y-88004819D01*
X127325714Y-88004819D02*
X127230476Y-88052438D01*
X127230476Y-88052438D02*
X127182857Y-88100057D01*
X127182857Y-88100057D02*
X127135238Y-88195295D01*
X127135238Y-88195295D02*
X127135238Y-88433390D01*
X127135238Y-88433390D02*
X127182857Y-88528628D01*
X127182857Y-88528628D02*
X127230476Y-88576247D01*
X127230476Y-88576247D02*
X127325714Y-88623866D01*
X127325714Y-88623866D02*
X127516190Y-88623866D01*
X127516190Y-88623866D02*
X127611428Y-88576247D01*
X127611428Y-88576247D02*
X127659047Y-88528628D01*
X127659047Y-88528628D02*
X127706666Y-88433390D01*
X148183333Y-67874819D02*
X147850000Y-67398628D01*
X147611905Y-67874819D02*
X147611905Y-66874819D01*
X147611905Y-66874819D02*
X147992857Y-66874819D01*
X147992857Y-66874819D02*
X148088095Y-66922438D01*
X148088095Y-66922438D02*
X148135714Y-66970057D01*
X148135714Y-66970057D02*
X148183333Y-67065295D01*
X148183333Y-67065295D02*
X148183333Y-67208152D01*
X148183333Y-67208152D02*
X148135714Y-67303390D01*
X148135714Y-67303390D02*
X148088095Y-67351009D01*
X148088095Y-67351009D02*
X147992857Y-67398628D01*
X147992857Y-67398628D02*
X147611905Y-67398628D01*
X148516667Y-66874819D02*
X149135714Y-66874819D01*
X149135714Y-66874819D02*
X148802381Y-67255771D01*
X148802381Y-67255771D02*
X148945238Y-67255771D01*
X148945238Y-67255771D02*
X149040476Y-67303390D01*
X149040476Y-67303390D02*
X149088095Y-67351009D01*
X149088095Y-67351009D02*
X149135714Y-67446247D01*
X149135714Y-67446247D02*
X149135714Y-67684342D01*
X149135714Y-67684342D02*
X149088095Y-67779580D01*
X149088095Y-67779580D02*
X149040476Y-67827200D01*
X149040476Y-67827200D02*
X148945238Y-67874819D01*
X148945238Y-67874819D02*
X148659524Y-67874819D01*
X148659524Y-67874819D02*
X148564286Y-67827200D01*
X148564286Y-67827200D02*
X148516667Y-67779580D01*
X161054819Y-88289523D02*
X161769104Y-88289523D01*
X161769104Y-88289523D02*
X161911961Y-88337142D01*
X161911961Y-88337142D02*
X162007200Y-88432380D01*
X162007200Y-88432380D02*
X162054819Y-88575237D01*
X162054819Y-88575237D02*
X162054819Y-88670475D01*
X162054819Y-87289523D02*
X162054819Y-87860951D01*
X162054819Y-87575237D02*
X161054819Y-87575237D01*
X161054819Y-87575237D02*
X161197676Y-87670475D01*
X161197676Y-87670475D02*
X161292914Y-87765713D01*
X161292914Y-87765713D02*
X161340533Y-87860951D01*
X161054819Y-86670475D02*
X161054819Y-86575237D01*
X161054819Y-86575237D02*
X161102438Y-86479999D01*
X161102438Y-86479999D02*
X161150057Y-86432380D01*
X161150057Y-86432380D02*
X161245295Y-86384761D01*
X161245295Y-86384761D02*
X161435771Y-86337142D01*
X161435771Y-86337142D02*
X161673866Y-86337142D01*
X161673866Y-86337142D02*
X161864342Y-86384761D01*
X161864342Y-86384761D02*
X161959580Y-86432380D01*
X161959580Y-86432380D02*
X162007200Y-86479999D01*
X162007200Y-86479999D02*
X162054819Y-86575237D01*
X162054819Y-86575237D02*
X162054819Y-86670475D01*
X162054819Y-86670475D02*
X162007200Y-86765713D01*
X162007200Y-86765713D02*
X161959580Y-86813332D01*
X161959580Y-86813332D02*
X161864342Y-86860951D01*
X161864342Y-86860951D02*
X161673866Y-86908570D01*
X161673866Y-86908570D02*
X161435771Y-86908570D01*
X161435771Y-86908570D02*
X161245295Y-86860951D01*
X161245295Y-86860951D02*
X161150057Y-86813332D01*
X161150057Y-86813332D02*
X161102438Y-86765713D01*
X161102438Y-86765713D02*
X161054819Y-86670475D01*
X122809819Y-84285238D02*
X122333628Y-84618571D01*
X122809819Y-84856666D02*
X121809819Y-84856666D01*
X121809819Y-84856666D02*
X121809819Y-84475714D01*
X121809819Y-84475714D02*
X121857438Y-84380476D01*
X121857438Y-84380476D02*
X121905057Y-84332857D01*
X121905057Y-84332857D02*
X122000295Y-84285238D01*
X122000295Y-84285238D02*
X122143152Y-84285238D01*
X122143152Y-84285238D02*
X122238390Y-84332857D01*
X122238390Y-84332857D02*
X122286009Y-84380476D01*
X122286009Y-84380476D02*
X122333628Y-84475714D01*
X122333628Y-84475714D02*
X122333628Y-84856666D01*
X121809819Y-83999523D02*
X122809819Y-83666190D01*
X122809819Y-83666190D02*
X121809819Y-83332857D01*
X121809819Y-83094761D02*
X121809819Y-82475714D01*
X121809819Y-82475714D02*
X122190771Y-82809047D01*
X122190771Y-82809047D02*
X122190771Y-82666190D01*
X122190771Y-82666190D02*
X122238390Y-82570952D01*
X122238390Y-82570952D02*
X122286009Y-82523333D01*
X122286009Y-82523333D02*
X122381247Y-82475714D01*
X122381247Y-82475714D02*
X122619342Y-82475714D01*
X122619342Y-82475714D02*
X122714580Y-82523333D01*
X122714580Y-82523333D02*
X122762200Y-82570952D01*
X122762200Y-82570952D02*
X122809819Y-82666190D01*
X122809819Y-82666190D02*
X122809819Y-82951904D01*
X122809819Y-82951904D02*
X122762200Y-83047142D01*
X122762200Y-83047142D02*
X122714580Y-83094761D01*
X142934819Y-89865238D02*
X142458628Y-90198571D01*
X142934819Y-90436666D02*
X141934819Y-90436666D01*
X141934819Y-90436666D02*
X141934819Y-90055714D01*
X141934819Y-90055714D02*
X141982438Y-89960476D01*
X141982438Y-89960476D02*
X142030057Y-89912857D01*
X142030057Y-89912857D02*
X142125295Y-89865238D01*
X142125295Y-89865238D02*
X142268152Y-89865238D01*
X142268152Y-89865238D02*
X142363390Y-89912857D01*
X142363390Y-89912857D02*
X142411009Y-89960476D01*
X142411009Y-89960476D02*
X142458628Y-90055714D01*
X142458628Y-90055714D02*
X142458628Y-90436666D01*
X141934819Y-89579523D02*
X142934819Y-89246190D01*
X142934819Y-89246190D02*
X141934819Y-88912857D01*
X142030057Y-88627142D02*
X141982438Y-88579523D01*
X141982438Y-88579523D02*
X141934819Y-88484285D01*
X141934819Y-88484285D02*
X141934819Y-88246190D01*
X141934819Y-88246190D02*
X141982438Y-88150952D01*
X141982438Y-88150952D02*
X142030057Y-88103333D01*
X142030057Y-88103333D02*
X142125295Y-88055714D01*
X142125295Y-88055714D02*
X142220533Y-88055714D01*
X142220533Y-88055714D02*
X142363390Y-88103333D01*
X142363390Y-88103333D02*
X142934819Y-88674761D01*
X142934819Y-88674761D02*
X142934819Y-88055714D01*
X140403333Y-54674819D02*
X140070000Y-54198628D01*
X139831905Y-54674819D02*
X139831905Y-53674819D01*
X139831905Y-53674819D02*
X140212857Y-53674819D01*
X140212857Y-53674819D02*
X140308095Y-53722438D01*
X140308095Y-53722438D02*
X140355714Y-53770057D01*
X140355714Y-53770057D02*
X140403333Y-53865295D01*
X140403333Y-53865295D02*
X140403333Y-54008152D01*
X140403333Y-54008152D02*
X140355714Y-54103390D01*
X140355714Y-54103390D02*
X140308095Y-54151009D01*
X140308095Y-54151009D02*
X140212857Y-54198628D01*
X140212857Y-54198628D02*
X139831905Y-54198628D01*
X140974762Y-54103390D02*
X140879524Y-54055771D01*
X140879524Y-54055771D02*
X140831905Y-54008152D01*
X140831905Y-54008152D02*
X140784286Y-53912914D01*
X140784286Y-53912914D02*
X140784286Y-53865295D01*
X140784286Y-53865295D02*
X140831905Y-53770057D01*
X140831905Y-53770057D02*
X140879524Y-53722438D01*
X140879524Y-53722438D02*
X140974762Y-53674819D01*
X140974762Y-53674819D02*
X141165238Y-53674819D01*
X141165238Y-53674819D02*
X141260476Y-53722438D01*
X141260476Y-53722438D02*
X141308095Y-53770057D01*
X141308095Y-53770057D02*
X141355714Y-53865295D01*
X141355714Y-53865295D02*
X141355714Y-53912914D01*
X141355714Y-53912914D02*
X141308095Y-54008152D01*
X141308095Y-54008152D02*
X141260476Y-54055771D01*
X141260476Y-54055771D02*
X141165238Y-54103390D01*
X141165238Y-54103390D02*
X140974762Y-54103390D01*
X140974762Y-54103390D02*
X140879524Y-54151009D01*
X140879524Y-54151009D02*
X140831905Y-54198628D01*
X140831905Y-54198628D02*
X140784286Y-54293866D01*
X140784286Y-54293866D02*
X140784286Y-54484342D01*
X140784286Y-54484342D02*
X140831905Y-54579580D01*
X140831905Y-54579580D02*
X140879524Y-54627200D01*
X140879524Y-54627200D02*
X140974762Y-54674819D01*
X140974762Y-54674819D02*
X141165238Y-54674819D01*
X141165238Y-54674819D02*
X141260476Y-54627200D01*
X141260476Y-54627200D02*
X141308095Y-54579580D01*
X141308095Y-54579580D02*
X141355714Y-54484342D01*
X141355714Y-54484342D02*
X141355714Y-54293866D01*
X141355714Y-54293866D02*
X141308095Y-54198628D01*
X141308095Y-54198628D02*
X141260476Y-54151009D01*
X141260476Y-54151009D02*
X141165238Y-54103390D01*
X106166666Y-71744819D02*
X106166666Y-72459104D01*
X106166666Y-72459104D02*
X106119047Y-72601961D01*
X106119047Y-72601961D02*
X106023809Y-72697200D01*
X106023809Y-72697200D02*
X105880952Y-72744819D01*
X105880952Y-72744819D02*
X105785714Y-72744819D01*
X107071428Y-71744819D02*
X106880952Y-71744819D01*
X106880952Y-71744819D02*
X106785714Y-71792438D01*
X106785714Y-71792438D02*
X106738095Y-71840057D01*
X106738095Y-71840057D02*
X106642857Y-71982914D01*
X106642857Y-71982914D02*
X106595238Y-72173390D01*
X106595238Y-72173390D02*
X106595238Y-72554342D01*
X106595238Y-72554342D02*
X106642857Y-72649580D01*
X106642857Y-72649580D02*
X106690476Y-72697200D01*
X106690476Y-72697200D02*
X106785714Y-72744819D01*
X106785714Y-72744819D02*
X106976190Y-72744819D01*
X106976190Y-72744819D02*
X107071428Y-72697200D01*
X107071428Y-72697200D02*
X107119047Y-72649580D01*
X107119047Y-72649580D02*
X107166666Y-72554342D01*
X107166666Y-72554342D02*
X107166666Y-72316247D01*
X107166666Y-72316247D02*
X107119047Y-72221009D01*
X107119047Y-72221009D02*
X107071428Y-72173390D01*
X107071428Y-72173390D02*
X106976190Y-72125771D01*
X106976190Y-72125771D02*
X106785714Y-72125771D01*
X106785714Y-72125771D02*
X106690476Y-72173390D01*
X106690476Y-72173390D02*
X106642857Y-72221009D01*
X106642857Y-72221009D02*
X106595238Y-72316247D01*
X124514819Y-70762857D02*
X124038628Y-71096190D01*
X124514819Y-71334285D02*
X123514819Y-71334285D01*
X123514819Y-71334285D02*
X123514819Y-70953333D01*
X123514819Y-70953333D02*
X123562438Y-70858095D01*
X123562438Y-70858095D02*
X123610057Y-70810476D01*
X123610057Y-70810476D02*
X123705295Y-70762857D01*
X123705295Y-70762857D02*
X123848152Y-70762857D01*
X123848152Y-70762857D02*
X123943390Y-70810476D01*
X123943390Y-70810476D02*
X123991009Y-70858095D01*
X123991009Y-70858095D02*
X124038628Y-70953333D01*
X124038628Y-70953333D02*
X124038628Y-71334285D01*
X123610057Y-70381904D02*
X123562438Y-70334285D01*
X123562438Y-70334285D02*
X123514819Y-70239047D01*
X123514819Y-70239047D02*
X123514819Y-70000952D01*
X123514819Y-70000952D02*
X123562438Y-69905714D01*
X123562438Y-69905714D02*
X123610057Y-69858095D01*
X123610057Y-69858095D02*
X123705295Y-69810476D01*
X123705295Y-69810476D02*
X123800533Y-69810476D01*
X123800533Y-69810476D02*
X123943390Y-69858095D01*
X123943390Y-69858095D02*
X124514819Y-70429523D01*
X124514819Y-70429523D02*
X124514819Y-69810476D01*
X123514819Y-69477142D02*
X123514819Y-68858095D01*
X123514819Y-68858095D02*
X123895771Y-69191428D01*
X123895771Y-69191428D02*
X123895771Y-69048571D01*
X123895771Y-69048571D02*
X123943390Y-68953333D01*
X123943390Y-68953333D02*
X123991009Y-68905714D01*
X123991009Y-68905714D02*
X124086247Y-68858095D01*
X124086247Y-68858095D02*
X124324342Y-68858095D01*
X124324342Y-68858095D02*
X124419580Y-68905714D01*
X124419580Y-68905714D02*
X124467200Y-68953333D01*
X124467200Y-68953333D02*
X124514819Y-69048571D01*
X124514819Y-69048571D02*
X124514819Y-69334285D01*
X124514819Y-69334285D02*
X124467200Y-69429523D01*
X124467200Y-69429523D02*
X124419580Y-69477142D01*
D11*
%TO.C,J1*%
X126610000Y-96130000D02*
X127940000Y-96130000D01*
X126610000Y-97460000D02*
X126610000Y-96130000D01*
X129210000Y-96130000D02*
X147050000Y-96130000D01*
X129210000Y-98790000D02*
X129210000Y-96130000D01*
X129210000Y-98790000D02*
X147050000Y-98790000D01*
X147050000Y-98790000D02*
X147050000Y-96130000D01*
%TO.C,J3*%
X149470000Y-96130000D02*
X150800000Y-96130000D01*
X149470000Y-97460000D02*
X149470000Y-96130000D01*
X152070000Y-96130000D02*
X164830000Y-96130000D01*
X152070000Y-98790000D02*
X152070000Y-96130000D01*
X152070000Y-98790000D02*
X164830000Y-98790000D01*
X164830000Y-98790000D02*
X164830000Y-96130000D01*
%TO.C,J2*%
X117466000Y-47870000D02*
X118796000Y-47870000D01*
X117466000Y-49200000D02*
X117466000Y-47870000D01*
X120066000Y-47870000D02*
X142986000Y-47870000D01*
X120066000Y-50530000D02*
X120066000Y-47870000D01*
X120066000Y-50530000D02*
X142986000Y-50530000D01*
X142986000Y-50530000D02*
X142986000Y-47870000D01*
%TO.C,J4*%
X144390000Y-47870000D02*
X145720000Y-47870000D01*
X144390000Y-49200000D02*
X144390000Y-47870000D01*
X146990000Y-47870000D02*
X164830000Y-47870000D01*
X146990000Y-50530000D02*
X146990000Y-47870000D01*
X146990000Y-50530000D02*
X164830000Y-50530000D01*
X164830000Y-50530000D02*
X164830000Y-47870000D01*
%TO.C,R9*%
X135430000Y-64263272D02*
G75*
G02*
X137270000Y-64263272I920000J1453272D01*
G01*
%TO.C,R13*%
X127230000Y-64273272D02*
G75*
G02*
X129070000Y-64273272I920000J1453272D01*
G01*
%TO.C,R14*%
X129050000Y-57166728D02*
G75*
G02*
X127210000Y-57166728I-920000J-1453272D01*
G01*
%TO.C,R18*%
X120970000Y-57216728D02*
G75*
G02*
X119130000Y-57216728I-920000J-1453272D01*
G01*
%TO.C,R4*%
X149240000Y-57236728D02*
G75*
G02*
X147400000Y-57236728I-920000J-1453272D01*
G01*
%TO.C,R15*%
X123150000Y-64263272D02*
G75*
G02*
X124990000Y-64263272I920000J1453272D01*
G01*
%TO.C,R19*%
X115160000Y-64293272D02*
G75*
G02*
X117000000Y-64293272I920000J1453272D01*
G01*
%TO.C,C2*%
X128520000Y-72730000D02*
X131260000Y-72730000D01*
X128520000Y-77970000D02*
X128520000Y-72730000D01*
X131260000Y-72730000D02*
X131260000Y-77970000D01*
X131260000Y-77970000D02*
X128520000Y-77970000D01*
%TO.C,R7*%
X139430000Y-64273272D02*
G75*
G02*
X141270000Y-64273272I920000J1453272D01*
G01*
%TO.C,R21*%
X111170000Y-64293272D02*
G75*
G02*
X113010000Y-64293272I920000J1453272D01*
G01*
%TO.C,SW2*%
X156960000Y-63050000D02*
X156960000Y-64550000D01*
X158210000Y-67050000D02*
X162710000Y-67050000D01*
X162710000Y-60550000D02*
X158210000Y-60550000D01*
X163960000Y-64550000D02*
X163960000Y-63050000D01*
%TO.C,R20*%
X117010000Y-57216728D02*
G75*
G02*
X115170000Y-57216728I-920000J-1453272D01*
G01*
%TO.C,R6*%
X145230000Y-57226728D02*
G75*
G02*
X143390000Y-57226728I-920000J-1453272D01*
G01*
%TO.C,J7*%
X151930000Y-70540000D02*
X153310000Y-70540000D01*
X151930000Y-71920000D02*
X151930000Y-70540000D01*
X151930000Y-73190000D02*
X151930000Y-78380000D01*
X151930000Y-73190000D02*
X154690000Y-73190000D01*
X151930000Y-78380000D02*
X154690000Y-78380000D01*
X154690000Y-73190000D02*
X154690000Y-78380000D01*
%TO.C,R10*%
X137190000Y-57196728D02*
G75*
G02*
X135350000Y-57196728I-920000J-1453272D01*
G01*
%TO.C,J5*%
X88350000Y-66400000D02*
X88350000Y-69060000D01*
X106190000Y-66400000D02*
X88350000Y-66400000D01*
X106190000Y-66400000D02*
X106190000Y-69060000D01*
X106190000Y-69060000D02*
X88350000Y-69060000D01*
X108790000Y-67730000D02*
X108790000Y-69060000D01*
X108790000Y-69060000D02*
X107460000Y-69060000D01*
%TO.C,R26*%
X120713272Y-91710000D02*
G75*
G02*
X120713272Y-89870000I-1453272J920000D01*
G01*
%TO.C,J11*%
X156390000Y-68330000D02*
X167390000Y-68330000D01*
X156390000Y-80330000D02*
X156390000Y-68330000D01*
X167390000Y-68330000D02*
X167390000Y-69830000D01*
X167390000Y-69830000D02*
X168590000Y-69830000D01*
X167390000Y-72330000D02*
X167390000Y-76330000D01*
X167390000Y-76330000D02*
X170390000Y-76330000D01*
X167390000Y-78830000D02*
X167390000Y-80330000D01*
X167390000Y-80330000D02*
X156390000Y-80330000D01*
X168590000Y-69830000D02*
X168590000Y-71330000D01*
X168590000Y-71330000D02*
X170390000Y-71330000D01*
X168590000Y-77330000D02*
X168590000Y-78830000D01*
X168590000Y-78830000D02*
X167390000Y-78830000D01*
X170390000Y-71330000D02*
X170390000Y-77330000D01*
X170390000Y-72330000D02*
X167390000Y-72330000D01*
X170390000Y-77330000D02*
X168590000Y-77330000D01*
%TO.C,R5*%
X143450000Y-64303272D02*
G75*
G02*
X145290000Y-64303272I920000J1453272D01*
G01*
%TO.C,C1*%
X145170000Y-75597620D02*
X142989000Y-75597620D01*
X145170000Y-75637620D02*
X142992000Y-75637620D01*
X145170000Y-75677620D02*
X142996000Y-75677620D01*
X145170000Y-75717620D02*
X143000000Y-75717620D01*
X145170000Y-75757620D02*
X143005000Y-75757620D01*
X145170000Y-75797620D02*
X143010000Y-75797620D01*
X145170000Y-75837620D02*
X143015000Y-75837620D01*
X145170000Y-75877620D02*
X143022000Y-75877620D01*
X145170000Y-75917620D02*
X143028000Y-75917620D01*
X145170000Y-75957620D02*
X143036000Y-75957620D01*
X145170000Y-75997620D02*
X143043000Y-75997620D01*
X145170000Y-76037620D02*
X143051000Y-76037620D01*
X145170000Y-76077620D02*
X143060000Y-76077620D01*
X145170000Y-76117620D02*
X143070000Y-76117620D01*
X145170000Y-76157620D02*
X143079000Y-76157620D01*
X145170000Y-76197620D02*
X143090000Y-76197620D01*
X145170000Y-76237620D02*
X143101000Y-76237620D01*
X145170000Y-76277620D02*
X143112000Y-76277620D01*
X145170000Y-76317620D02*
X143124000Y-76317620D01*
X145170000Y-76357620D02*
X143137000Y-76357620D01*
X145170000Y-76397620D02*
X143150000Y-76397620D01*
X145170000Y-76437620D02*
X143163000Y-76437620D01*
X145170000Y-76477620D02*
X143178000Y-76477620D01*
X145170000Y-76517620D02*
X143193000Y-76517620D01*
X145170000Y-76557620D02*
X143208000Y-76557620D01*
X145170000Y-76597620D02*
X143224000Y-76597620D01*
X145170000Y-76637620D02*
X143241000Y-76637620D01*
X145170000Y-76677620D02*
X143258000Y-76677620D01*
X145170000Y-76717620D02*
X143276000Y-76717620D01*
X145170000Y-76757620D02*
X143295000Y-76757620D01*
X145170000Y-76797620D02*
X143314000Y-76797620D01*
X145170000Y-76837620D02*
X143334000Y-76837620D01*
X145170000Y-76877620D02*
X143355000Y-76877620D01*
X145170000Y-76917620D02*
X143376000Y-76917620D01*
X145170000Y-76957620D02*
X143398000Y-76957620D01*
X145170000Y-76997620D02*
X143421000Y-76997620D01*
X145170000Y-77037620D02*
X143445000Y-77037620D01*
X145170000Y-77077620D02*
X143469000Y-77077620D01*
X145170000Y-77117620D02*
X143494000Y-77117620D01*
X145170000Y-77157620D02*
X143520000Y-77157620D01*
X145170000Y-77197620D02*
X143547000Y-77197620D01*
X145170000Y-77237620D02*
X143574000Y-77237620D01*
X145170000Y-77277620D02*
X143603000Y-77277620D01*
X145170000Y-77317620D02*
X143633000Y-77317620D01*
X145170000Y-77357620D02*
X143663000Y-77357620D01*
X145170000Y-77397620D02*
X143694000Y-77397620D01*
X145170000Y-77437620D02*
X143727000Y-77437620D01*
X145170000Y-77477620D02*
X143760000Y-77477620D01*
X145170000Y-77517620D02*
X143795000Y-77517620D01*
X145170000Y-77557620D02*
X143831000Y-77557620D01*
X145170000Y-77597620D02*
X143868000Y-77597620D01*
X145170000Y-77637620D02*
X143906000Y-77637620D01*
X146612000Y-78597620D02*
X145808000Y-78597620D01*
X146843000Y-78557620D02*
X145577000Y-78557620D01*
X147011000Y-78517620D02*
X145409000Y-78517620D01*
X147149000Y-78477620D02*
X145271000Y-78477620D01*
X147268000Y-78437620D02*
X145152000Y-78437620D01*
X147375000Y-78397620D02*
X145045000Y-78397620D01*
X147471000Y-78357620D02*
X144949000Y-78357620D01*
X147560000Y-78317620D02*
X144860000Y-78317620D01*
X147642000Y-78277620D02*
X144778000Y-78277620D01*
X147719000Y-78237620D02*
X144701000Y-78237620D01*
X147791000Y-78197620D02*
X144629000Y-78197620D01*
X147859000Y-78157620D02*
X144561000Y-78157620D01*
X147924000Y-78117620D02*
X144496000Y-78117620D01*
X147985000Y-78077620D02*
X144435000Y-78077620D01*
X148044000Y-78037620D02*
X144376000Y-78037620D01*
X148049000Y-71857379D02*
X148049000Y-72487379D01*
X148100000Y-77997620D02*
X144320000Y-77997620D01*
X148153000Y-77957620D02*
X144267000Y-77957620D01*
X148205000Y-77917620D02*
X144215000Y-77917620D01*
X148254000Y-77877620D02*
X144166000Y-77877620D01*
X148301000Y-77837620D02*
X144119000Y-77837620D01*
X148347000Y-77797620D02*
X144073000Y-77797620D01*
X148364000Y-72172379D02*
X147734000Y-72172379D01*
X148391000Y-77757620D02*
X144029000Y-77757620D01*
X148433000Y-77717620D02*
X143987000Y-77717620D01*
X148474000Y-77677620D02*
X143946000Y-77677620D01*
X148514000Y-77637620D02*
X147250000Y-77637620D01*
X148552000Y-77597620D02*
X147250000Y-77597620D01*
X148589000Y-77557620D02*
X147250000Y-77557620D01*
X148625000Y-77517620D02*
X147250000Y-77517620D01*
X148660000Y-77477620D02*
X147250000Y-77477620D01*
X148693000Y-77437620D02*
X147250000Y-77437620D01*
X148726000Y-77397620D02*
X147250000Y-77397620D01*
X148757000Y-77357620D02*
X147250000Y-77357620D01*
X148787000Y-77317620D02*
X147250000Y-77317620D01*
X148817000Y-77277620D02*
X147250000Y-77277620D01*
X148846000Y-77237620D02*
X147250000Y-77237620D01*
X148873000Y-77197620D02*
X147250000Y-77197620D01*
X148900000Y-77157620D02*
X147250000Y-77157620D01*
X148926000Y-77117620D02*
X147250000Y-77117620D01*
X148951000Y-77077620D02*
X147250000Y-77077620D01*
X148975000Y-77037620D02*
X147250000Y-77037620D01*
X148999000Y-76997620D02*
X147250000Y-76997620D01*
X149022000Y-76957620D02*
X147250000Y-76957620D01*
X149044000Y-76917620D02*
X147250000Y-76917620D01*
X149065000Y-76877620D02*
X147250000Y-76877620D01*
X149086000Y-76837620D02*
X147250000Y-76837620D01*
X149106000Y-76797620D02*
X147250000Y-76797620D01*
X149125000Y-76757620D02*
X147250000Y-76757620D01*
X149144000Y-76717620D02*
X147250000Y-76717620D01*
X149162000Y-76677620D02*
X147250000Y-76677620D01*
X149179000Y-76637620D02*
X147250000Y-76637620D01*
X149196000Y-76597620D02*
X147250000Y-76597620D01*
X149212000Y-76557620D02*
X147250000Y-76557620D01*
X149227000Y-76517620D02*
X147250000Y-76517620D01*
X149242000Y-76477620D02*
X147250000Y-76477620D01*
X149257000Y-76437620D02*
X147250000Y-76437620D01*
X149270000Y-76397620D02*
X147250000Y-76397620D01*
X149283000Y-76357620D02*
X147250000Y-76357620D01*
X149296000Y-76317620D02*
X147250000Y-76317620D01*
X149308000Y-76277620D02*
X147250000Y-76277620D01*
X149319000Y-76237620D02*
X147250000Y-76237620D01*
X149330000Y-76197620D02*
X147250000Y-76197620D01*
X149341000Y-76157620D02*
X147250000Y-76157620D01*
X149350000Y-76117620D02*
X147250000Y-76117620D01*
X149360000Y-76077620D02*
X147250000Y-76077620D01*
X149369000Y-76037620D02*
X147250000Y-76037620D01*
X149377000Y-75997620D02*
X147250000Y-75997620D01*
X149384000Y-75957620D02*
X147250000Y-75957620D01*
X149392000Y-75917620D02*
X147250000Y-75917620D01*
X149398000Y-75877620D02*
X147250000Y-75877620D01*
X149405000Y-75837620D02*
X147250000Y-75837620D01*
X149410000Y-75797620D02*
X147250000Y-75797620D01*
X149415000Y-75757620D02*
X147250000Y-75757620D01*
X149420000Y-75717620D02*
X147250000Y-75717620D01*
X149424000Y-75677620D02*
X147250000Y-75677620D01*
X149428000Y-75637620D02*
X147250000Y-75637620D01*
X149431000Y-75597620D02*
X147250000Y-75597620D01*
X149434000Y-75557620D02*
X142986000Y-75557620D01*
X149436000Y-75517620D02*
X142984000Y-75517620D01*
X149438000Y-75477620D02*
X142982000Y-75477620D01*
X149439000Y-75437620D02*
X142981000Y-75437620D01*
X149440000Y-75357620D02*
X142980000Y-75357620D01*
X149440000Y-75397620D02*
X142980000Y-75397620D01*
X149480000Y-75357620D02*
G75*
G02*
X142940000Y-75357620I-3270000J0D01*
G01*
X142940000Y-75357620D02*
G75*
G02*
X149480000Y-75357620I3270000J0D01*
G01*
%TO.C,R24*%
X125440000Y-75693272D02*
G75*
G02*
X127280000Y-75693272I920000J1453272D01*
G01*
%TO.C,R12*%
X133100000Y-57166728D02*
G75*
G02*
X131260000Y-57166728I-920000J-1453272D01*
G01*
%TO.C,SW1*%
X156960000Y-54870000D02*
X156960000Y-56370000D01*
X158210000Y-58870000D02*
X162710000Y-58870000D01*
X162710000Y-52370000D02*
X158210000Y-52370000D01*
X163960000Y-56370000D02*
X163960000Y-54870000D01*
%TO.C,R11*%
X131260000Y-64223272D02*
G75*
G02*
X133100000Y-64223272I920000J1453272D01*
G01*
%TO.C,R22*%
X113050000Y-57196728D02*
G75*
G02*
X111210000Y-57196728I-920000J-1453272D01*
G01*
%TO.C,J12*%
X152240000Y-88510000D02*
X152240000Y-83320000D01*
X155000000Y-83320000D02*
X152240000Y-83320000D01*
X155000000Y-88510000D02*
X152240000Y-88510000D01*
X155000000Y-88510000D02*
X155000000Y-83320000D01*
X155000000Y-89780000D02*
X155000000Y-91160000D01*
X155000000Y-91160000D02*
X153620000Y-91160000D01*
%TO.C,R1*%
X152300000Y-56123272D02*
G75*
G02*
X154140000Y-56123272I920000J1453272D01*
G01*
%TO.C,R27*%
X136726728Y-69260000D02*
G75*
G02*
X136726728Y-71100000I1453272J-920000D01*
G01*
%TO.C,R17*%
X119110000Y-64253272D02*
G75*
G02*
X120950000Y-64253272I920000J1453272D01*
G01*
%TO.C,R25*%
X118633272Y-77280000D02*
G75*
G02*
X118633272Y-75440000I-1453272J920000D01*
G01*
%TO.C,R16*%
X124990000Y-57196728D02*
G75*
G02*
X123150000Y-57196728I-920000J-1453272D01*
G01*
%TO.C,RV1*%
X129720000Y-84535000D02*
X139470000Y-84535000D01*
X129720000Y-94285000D02*
X129720000Y-84535000D01*
X139470000Y-84535000D02*
X139470000Y-94285000D01*
X139470000Y-94285000D02*
X129720000Y-94285000D01*
%TO.C,R2*%
X152340000Y-64263272D02*
G75*
G02*
X154180000Y-64263272I920000J1453272D01*
G01*
%TO.C,U1*%
X134860000Y-72840000D02*
X134860000Y-83120000D01*
X134860000Y-83120000D02*
X139360000Y-83120000D01*
X136110000Y-72840000D02*
X134860000Y-72840000D01*
X139360000Y-72840000D02*
X138110000Y-72840000D01*
X139360000Y-83120000D02*
X139360000Y-72840000D01*
X131860000Y-72780000D02*
X142360000Y-72780000D01*
X142360000Y-83180000D01*
X131860000Y-83180000D01*
X131860000Y-72780000D01*
X138110000Y-72840000D02*
G75*
G02*
X136110000Y-72840000I-1000000J0D01*
G01*
%TO.C,J9*%
X125660000Y-84900000D02*
X125660000Y-79710000D01*
X128420000Y-79710000D02*
X125660000Y-79710000D01*
X128420000Y-84900000D02*
X125660000Y-84900000D01*
X128420000Y-84900000D02*
X128420000Y-79710000D01*
X128420000Y-86170000D02*
X128420000Y-87550000D01*
X128420000Y-87550000D02*
X127040000Y-87550000D01*
%TO.C,R3*%
X149260000Y-63156728D02*
G75*
G02*
X147420000Y-63156728I-920000J-1453272D01*
G01*
%TO.C,J10*%
X156390000Y-81540000D02*
X167390000Y-81540000D01*
X156390000Y-93540000D02*
X156390000Y-81540000D01*
X167390000Y-81540000D02*
X167390000Y-83040000D01*
X167390000Y-83040000D02*
X168590000Y-83040000D01*
X167390000Y-85540000D02*
X167390000Y-89540000D01*
X167390000Y-89540000D02*
X170390000Y-89540000D01*
X167390000Y-92040000D02*
X167390000Y-93540000D01*
X167390000Y-93540000D02*
X156390000Y-93540000D01*
X168590000Y-83040000D02*
X168590000Y-84540000D01*
X168590000Y-84540000D02*
X170390000Y-84540000D01*
X168590000Y-90540000D02*
X168590000Y-92040000D01*
X168590000Y-92040000D02*
X167390000Y-92040000D01*
X170390000Y-84540000D02*
X170390000Y-90540000D01*
X170390000Y-85540000D02*
X167390000Y-85540000D01*
X170390000Y-90540000D02*
X168590000Y-90540000D01*
%TO.C,RV3*%
X114845000Y-78665000D02*
X124595000Y-78665000D01*
X114845000Y-88415000D02*
X114845000Y-78665000D01*
X124595000Y-78665000D02*
X124595000Y-88415000D01*
X124595000Y-88415000D02*
X114845000Y-88415000D01*
%TO.C,RV2*%
X140920000Y-84535000D02*
X150670000Y-84535000D01*
X140920000Y-94285000D02*
X140920000Y-84535000D01*
X150670000Y-84535000D02*
X150670000Y-94285000D01*
X150670000Y-94285000D02*
X140920000Y-94285000D01*
%TO.C,R8*%
X141290000Y-57236728D02*
G75*
G02*
X139450000Y-57236728I-920000J-1453272D01*
G01*
%TO.C,J6*%
X94520000Y-73620000D02*
X94520000Y-72240000D01*
X95900000Y-73620000D02*
X94520000Y-73620000D01*
X97170000Y-70860000D02*
X104900000Y-70860000D01*
X97170000Y-73620000D02*
X97170000Y-70860000D01*
X97170000Y-73620000D02*
X104900000Y-73620000D01*
X104900000Y-73620000D02*
X104900000Y-70860000D01*
%TO.C,R23*%
X119916728Y-69120000D02*
G75*
G02*
X119916728Y-70960000I1453272J-920000D01*
G01*
%TD*%
M02*
